<mxfile host="app.diagrams.net" modified="2023-03-19T23:37:12.271Z" agent="5.0 (Windows NT 10.0; Win64; x64) AppleWebKit/537.36 (KHTML, like Gecko) Chrome/111.0.0.0 Safari/537.36" etag="dXD8NXoum9wfBIcctwP3" version="21.0.8" type="github">
  <diagram name="Page-1" id="6D9HJea0ypen_4jIPFg-">
    <mxGraphModel dx="1169" dy="661" grid="1" gridSize="10" guides="1" tooltips="1" connect="1" arrows="1" fold="1" page="1" pageScale="1" pageWidth="2336" pageHeight="1654" math="0" shadow="0">
      <root>
        <mxCell id="0" />
        <mxCell id="1" parent="0" />
        <mxCell id="SNnAPRE6H2LCFaZrrpsA-399" value="" style="endArrow=classic;html=1;rounded=0;" edge="1" parent="1">
          <mxGeometry width="50" height="50" relative="1" as="geometry">
            <mxPoint x="350" y="150" as="sourcePoint" />
            <mxPoint x="350" y="80" as="targetPoint" />
          </mxGeometry>
        </mxCell>
        <mxCell id="SNnAPRE6H2LCFaZrrpsA-382" style="rounded=0;orthogonalLoop=1;jettySize=auto;html=1;" edge="1" parent="1">
          <mxGeometry relative="1" as="geometry">
            <Array as="points">
              <mxPoint x="900" y="270" />
              <mxPoint x="830" y="270" />
            </Array>
            <mxPoint x="900" y="320" as="sourcePoint" />
            <mxPoint x="830" y="230" as="targetPoint" />
          </mxGeometry>
        </mxCell>
        <mxCell id="SNnAPRE6H2LCFaZrrpsA-383" style="rounded=0;orthogonalLoop=1;jettySize=auto;html=1;" edge="1" parent="1">
          <mxGeometry relative="1" as="geometry">
            <Array as="points">
              <mxPoint x="910" y="260" />
              <mxPoint x="840" y="260" />
            </Array>
            <mxPoint x="910" y="310" as="sourcePoint" />
            <mxPoint x="840" y="220" as="targetPoint" />
          </mxGeometry>
        </mxCell>
        <mxCell id="SNnAPRE6H2LCFaZrrpsA-377" style="rounded=0;orthogonalLoop=1;jettySize=auto;html=1;" edge="1" parent="1">
          <mxGeometry relative="1" as="geometry">
            <Array as="points">
              <mxPoint x="740" y="270" />
              <mxPoint x="670" y="270" />
            </Array>
            <mxPoint x="740" y="320" as="sourcePoint" />
            <mxPoint x="670" y="230" as="targetPoint" />
          </mxGeometry>
        </mxCell>
        <mxCell id="SNnAPRE6H2LCFaZrrpsA-378" style="rounded=0;orthogonalLoop=1;jettySize=auto;html=1;" edge="1" parent="1">
          <mxGeometry relative="1" as="geometry">
            <Array as="points">
              <mxPoint x="750" y="260" />
              <mxPoint x="680" y="260" />
            </Array>
            <mxPoint x="750" y="310" as="sourcePoint" />
            <mxPoint x="680" y="220" as="targetPoint" />
          </mxGeometry>
        </mxCell>
        <mxCell id="SNnAPRE6H2LCFaZrrpsA-15" value="" style="rounded=0;whiteSpace=wrap;html=1;strokeWidth=2;fontSize=17;fontStyle=1;fillColor=#f5f5f5;strokeColor=#666666;fontColor=#333333;" vertex="1" parent="1">
          <mxGeometry x="300" y="300" width="650" height="180" as="geometry" />
        </mxCell>
        <mxCell id="SNnAPRE6H2LCFaZrrpsA-16" value="" style="rounded=0;whiteSpace=wrap;html=1;strokeWidth=2;fontSize=17;fontStyle=1;fillColor=#f5f5f5;strokeColor=#666666;fontColor=#333333;" vertex="1" parent="1">
          <mxGeometry x="290" y="310" width="650" height="180" as="geometry" />
        </mxCell>
        <mxCell id="SNnAPRE6H2LCFaZrrpsA-370" value="" style="group;strokeWidth=2;fontStyle=1" vertex="1" connectable="0" parent="1">
          <mxGeometry x="500" y="255" width="90" height="30" as="geometry" />
        </mxCell>
        <mxCell id="SNnAPRE6H2LCFaZrrpsA-366" style="rounded=0;orthogonalLoop=1;jettySize=auto;html=1;" edge="1" parent="SNnAPRE6H2LCFaZrrpsA-370">
          <mxGeometry relative="1" as="geometry">
            <Array as="points">
              <mxPoint x="80" y="15" />
              <mxPoint x="10" y="15" />
            </Array>
            <mxPoint x="80" y="65" as="sourcePoint" />
            <mxPoint x="10" y="-25" as="targetPoint" />
          </mxGeometry>
        </mxCell>
        <mxCell id="SNnAPRE6H2LCFaZrrpsA-367" style="rounded=0;orthogonalLoop=1;jettySize=auto;html=1;" edge="1" parent="SNnAPRE6H2LCFaZrrpsA-370">
          <mxGeometry relative="1" as="geometry">
            <Array as="points">
              <mxPoint x="90" y="5" />
              <mxPoint x="20" y="5" />
            </Array>
            <mxPoint x="90" y="55" as="sourcePoint" />
            <mxPoint x="20" y="-35" as="targetPoint" />
          </mxGeometry>
        </mxCell>
        <mxCell id="SNnAPRE6H2LCFaZrrpsA-368" style="rounded=0;orthogonalLoop=1;jettySize=auto;html=1;" edge="1" parent="SNnAPRE6H2LCFaZrrpsA-370">
          <mxGeometry relative="1" as="geometry">
            <Array as="points">
              <mxPoint x="70" y="25" />
              <mxPoint y="25" />
            </Array>
            <mxPoint x="70" y="75" as="sourcePoint" />
            <mxPoint y="-15" as="targetPoint" />
          </mxGeometry>
        </mxCell>
        <mxCell id="SNnAPRE6H2LCFaZrrpsA-369" value="&amp;nbsp; &amp;nbsp;Layer Norm&amp;nbsp; &amp;nbsp;" style="shape=parallelogram;perimeter=parallelogramPerimeter;whiteSpace=wrap;html=1;fixedSize=1;container=0;fillColor=#f5f5f5;fontColor=#333333;strokeColor=#666666;fontStyle=1;strokeWidth=2;" vertex="1" parent="SNnAPRE6H2LCFaZrrpsA-370">
          <mxGeometry x="15" width="60" height="30" as="geometry" />
        </mxCell>
        <mxCell id="SNnAPRE6H2LCFaZrrpsA-160" style="rounded=0;orthogonalLoop=1;jettySize=auto;html=1;" edge="1" parent="1" target="SNnAPRE6H2LCFaZrrpsA-11">
          <mxGeometry relative="1" as="geometry">
            <Array as="points">
              <mxPoint x="420" y="270" />
              <mxPoint x="350" y="270" />
            </Array>
            <mxPoint x="420" y="320" as="sourcePoint" />
            <mxPoint x="390" y="270" as="targetPoint" />
          </mxGeometry>
        </mxCell>
        <mxCell id="SNnAPRE6H2LCFaZrrpsA-167" style="rounded=0;orthogonalLoop=1;jettySize=auto;html=1;" edge="1" parent="1" target="SNnAPRE6H2LCFaZrrpsA-7">
          <mxGeometry relative="1" as="geometry">
            <Array as="points">
              <mxPoint x="430" y="260" />
              <mxPoint x="360" y="260" />
            </Array>
            <mxPoint x="430" y="310" as="sourcePoint" />
            <mxPoint x="400" y="260" as="targetPoint" />
          </mxGeometry>
        </mxCell>
        <mxCell id="SNnAPRE6H2LCFaZrrpsA-1" value="k&amp;nbsp;" style="rounded=1;whiteSpace=wrap;html=1;fontStyle=1;strokeWidth=2;fontSize=17;fillColor=#f8cecc;strokeColor=#b85450;" vertex="1" parent="1">
          <mxGeometry x="380" y="520" width="20" height="20" as="geometry" />
        </mxCell>
        <mxCell id="SNnAPRE6H2LCFaZrrpsA-2" value="q&amp;nbsp;" style="rounded=1;whiteSpace=wrap;html=1;fontStyle=1;strokeWidth=2;fontSize=17;fillColor=#f8cecc;strokeColor=#b85450;" vertex="1" parent="1">
          <mxGeometry x="400" y="520" width="20" height="20" as="geometry" />
        </mxCell>
        <mxCell id="SNnAPRE6H2LCFaZrrpsA-3" value="v&amp;nbsp;" style="rounded=1;whiteSpace=wrap;html=1;fontStyle=1;strokeWidth=2;fontSize=17;fillColor=#f8cecc;strokeColor=#b85450;" vertex="1" parent="1">
          <mxGeometry x="340" y="520" width="20" height="20" as="geometry" />
        </mxCell>
        <mxCell id="SNnAPRE6H2LCFaZrrpsA-4" value="k&amp;nbsp;" style="rounded=1;whiteSpace=wrap;html=1;fontStyle=1;strokeWidth=2;fontSize=17;fillColor=#f8cecc;strokeColor=#b85450;" vertex="1" parent="1">
          <mxGeometry x="300" y="520" width="20" height="20" as="geometry" />
        </mxCell>
        <mxCell id="SNnAPRE6H2LCFaZrrpsA-5" value="q&amp;nbsp;" style="rounded=1;whiteSpace=wrap;html=1;fontStyle=1;strokeWidth=2;fontSize=17;fillColor=#f8cecc;strokeColor=#b85450;" vertex="1" parent="1">
          <mxGeometry x="320" y="520" width="20" height="20" as="geometry" />
        </mxCell>
        <mxCell id="SNnAPRE6H2LCFaZrrpsA-6" value="v&amp;nbsp;" style="rounded=1;whiteSpace=wrap;html=1;fontStyle=1;strokeWidth=2;fontSize=17;fillColor=#f8cecc;strokeColor=#b85450;" vertex="1" parent="1">
          <mxGeometry x="420" y="520" width="20" height="20" as="geometry" />
        </mxCell>
        <mxCell id="SNnAPRE6H2LCFaZrrpsA-7" value="b&amp;nbsp; &amp;nbsp; &amp;nbsp; &amp;nbsp;&amp;nbsp;" style="rounded=1;whiteSpace=wrap;html=1;fontStyle=1;strokeWidth=2;fontSize=11;fillColor=#FFE6D4;strokeColor=#d6b656;verticalAlign=middle;" vertex="1" parent="1">
          <mxGeometry x="320" y="200" width="80" height="20" as="geometry" />
        </mxCell>
        <mxCell id="SNnAPRE6H2LCFaZrrpsA-8" value="b&amp;nbsp; &amp;nbsp; &amp;nbsp; &amp;nbsp;&amp;nbsp;" style="rounded=1;whiteSpace=wrap;html=1;fontStyle=1;strokeWidth=2;fontSize=11;fillColor=#FFE6D4;strokeColor=#d6b656;verticalAlign=middle;" vertex="1" parent="1">
          <mxGeometry x="480" y="200" width="80" height="20" as="geometry" />
        </mxCell>
        <mxCell id="SNnAPRE6H2LCFaZrrpsA-9" value="b&amp;nbsp; &amp;nbsp; &amp;nbsp; &amp;nbsp;&amp;nbsp;" style="rounded=1;whiteSpace=wrap;html=1;fontStyle=1;strokeWidth=2;fontSize=11;fillColor=#FFE6D4;strokeColor=#d6b656;verticalAlign=middle;" vertex="1" parent="1">
          <mxGeometry x="640" y="200" width="80" height="20" as="geometry" />
        </mxCell>
        <mxCell id="SNnAPRE6H2LCFaZrrpsA-10" value="b&amp;nbsp; &amp;nbsp; &amp;nbsp; &amp;nbsp;&amp;nbsp;" style="rounded=1;whiteSpace=wrap;html=1;fontStyle=1;strokeWidth=2;fontSize=11;fillColor=#FFE6D4;strokeColor=#d6b656;verticalAlign=middle;" vertex="1" parent="1">
          <mxGeometry x="800" y="200" width="80" height="20" as="geometry" />
        </mxCell>
        <mxCell id="SNnAPRE6H2LCFaZrrpsA-11" value="b&amp;nbsp; &amp;nbsp; &amp;nbsp; &amp;nbsp;&amp;nbsp;" style="rounded=1;whiteSpace=wrap;html=1;fontStyle=1;strokeWidth=2;fontSize=11;fillColor=#E6E0BA;strokeColor=#d6b656;verticalAlign=middle;" vertex="1" parent="1">
          <mxGeometry x="310" y="210" width="80" height="20" as="geometry" />
        </mxCell>
        <mxCell id="SNnAPRE6H2LCFaZrrpsA-12" value="b&amp;nbsp; &amp;nbsp; &amp;nbsp; &amp;nbsp;&amp;nbsp;" style="rounded=1;whiteSpace=wrap;html=1;fontStyle=1;strokeWidth=2;fontSize=11;fillColor=#E6E0BA;strokeColor=#d6b656;verticalAlign=middle;" vertex="1" parent="1">
          <mxGeometry x="470" y="210" width="80" height="20" as="geometry" />
        </mxCell>
        <mxCell id="SNnAPRE6H2LCFaZrrpsA-13" value="b&amp;nbsp; &amp;nbsp; &amp;nbsp; &amp;nbsp;&amp;nbsp;" style="rounded=1;whiteSpace=wrap;html=1;fontStyle=1;strokeWidth=2;fontSize=11;fillColor=#E6E0BA;strokeColor=#d6b656;verticalAlign=middle;" vertex="1" parent="1">
          <mxGeometry x="630" y="210" width="80" height="20" as="geometry" />
        </mxCell>
        <mxCell id="SNnAPRE6H2LCFaZrrpsA-14" value="b&amp;nbsp; &amp;nbsp; &amp;nbsp; &amp;nbsp;&amp;nbsp;" style="rounded=1;whiteSpace=wrap;html=1;fontStyle=1;strokeWidth=2;fontSize=11;fillColor=#E6E0BA;strokeColor=#d6b656;verticalAlign=middle;" vertex="1" parent="1">
          <mxGeometry x="790" y="210" width="80" height="20" as="geometry" />
        </mxCell>
        <mxCell id="SNnAPRE6H2LCFaZrrpsA-17" value="" style="rounded=0;whiteSpace=wrap;html=1;strokeWidth=2;fontSize=17;fontStyle=1;fillColor=#f5f5f5;strokeColor=#666666;fontColor=#333333;" vertex="1" parent="1">
          <mxGeometry x="280" y="320" width="650" height="180" as="geometry" />
        </mxCell>
        <mxCell id="SNnAPRE6H2LCFaZrrpsA-18" value="Self Attentions" style="text;html=1;strokeColor=none;fillColor=none;align=center;verticalAlign=middle;whiteSpace=wrap;rounded=0;rotation=90;fontStyle=1;fontSize=14;" vertex="1" parent="1">
          <mxGeometry x="172.5" y="392.5" width="185" height="20" as="geometry" />
        </mxCell>
        <mxCell id="SNnAPRE6H2LCFaZrrpsA-19" style="rounded=0;orthogonalLoop=1;jettySize=auto;html=1;" edge="1" parent="1" source="SNnAPRE6H2LCFaZrrpsA-24" target="SNnAPRE6H2LCFaZrrpsA-21">
          <mxGeometry relative="1" as="geometry">
            <mxPoint x="550" y="390" as="sourcePoint" />
            <mxPoint x="339.9999999999999" y="300" as="targetPoint" />
            <Array as="points">
              <mxPoint x="410" y="400" />
              <mxPoint x="410" y="370" />
            </Array>
          </mxGeometry>
        </mxCell>
        <mxCell id="SNnAPRE6H2LCFaZrrpsA-21" value="+" style="ellipse;whiteSpace=wrap;html=1;aspect=fixed;fontStyle=1" vertex="1" parent="1">
          <mxGeometry x="400" y="330" width="20" height="20" as="geometry" />
        </mxCell>
        <mxCell id="SNnAPRE6H2LCFaZrrpsA-22" style="rounded=0;orthogonalLoop=1;jettySize=auto;html=1;" edge="1" parent="1" source="SNnAPRE6H2LCFaZrrpsA-23" target="SNnAPRE6H2LCFaZrrpsA-21">
          <mxGeometry relative="1" as="geometry">
            <Array as="points">
              <mxPoint x="410" y="370" />
            </Array>
          </mxGeometry>
        </mxCell>
        <mxCell id="SNnAPRE6H2LCFaZrrpsA-23" value="×" style="ellipse;whiteSpace=wrap;html=1;aspect=fixed;fontStyle=1" vertex="1" parent="1">
          <mxGeometry x="380" y="380" width="20" height="20" as="geometry" />
        </mxCell>
        <mxCell id="SNnAPRE6H2LCFaZrrpsA-24" value="×" style="ellipse;whiteSpace=wrap;html=1;aspect=fixed;fontStyle=1" vertex="1" parent="1">
          <mxGeometry x="380" y="410" width="20" height="20" as="geometry" />
        </mxCell>
        <mxCell id="SNnAPRE6H2LCFaZrrpsA-25" value="×" style="ellipse;whiteSpace=wrap;html=1;aspect=fixed;fontStyle=1" vertex="1" parent="1">
          <mxGeometry x="380" y="440" width="20" height="20" as="geometry" />
        </mxCell>
        <mxCell id="SNnAPRE6H2LCFaZrrpsA-26" value="×" style="ellipse;whiteSpace=wrap;html=1;aspect=fixed;fontStyle=1" vertex="1" parent="1">
          <mxGeometry x="380" y="470" width="20" height="20" as="geometry" />
        </mxCell>
        <mxCell id="SNnAPRE6H2LCFaZrrpsA-27" value="b&amp;nbsp; &amp;nbsp; &amp;nbsp; &amp;nbsp;&amp;nbsp;" style="rounded=1;whiteSpace=wrap;html=1;fontStyle=1;strokeWidth=2;fontSize=11;fillColor=#fff2cc;strokeColor=#d6b656;verticalAlign=middle;" vertex="1" parent="1">
          <mxGeometry x="300" y="220" width="80" height="20" as="geometry" />
        </mxCell>
        <mxCell id="SNnAPRE6H2LCFaZrrpsA-28" style="rounded=0;orthogonalLoop=1;jettySize=auto;html=1;fontStyle=1;endSize=4;" edge="1" parent="1" target="SNnAPRE6H2LCFaZrrpsA-23">
          <mxGeometry relative="1" as="geometry">
            <mxPoint x="380" y="400" as="targetPoint" />
            <mxPoint x="420" y="390" as="sourcePoint" />
          </mxGeometry>
        </mxCell>
        <mxCell id="SNnAPRE6H2LCFaZrrpsA-29" style="rounded=0;orthogonalLoop=1;jettySize=auto;html=1;fontStyle=1;endSize=4;" edge="1" parent="1" target="SNnAPRE6H2LCFaZrrpsA-24">
          <mxGeometry relative="1" as="geometry">
            <mxPoint x="380" y="400" as="targetPoint" />
            <mxPoint x="420" y="420" as="sourcePoint" />
          </mxGeometry>
        </mxCell>
        <mxCell id="SNnAPRE6H2LCFaZrrpsA-30" style="rounded=0;orthogonalLoop=1;jettySize=auto;html=1;fontStyle=1;endSize=4;" edge="1" parent="1" target="SNnAPRE6H2LCFaZrrpsA-25">
          <mxGeometry relative="1" as="geometry">
            <mxPoint x="380" y="400" as="targetPoint" />
            <mxPoint x="420" y="450" as="sourcePoint" />
          </mxGeometry>
        </mxCell>
        <mxCell id="SNnAPRE6H2LCFaZrrpsA-31" style="rounded=0;orthogonalLoop=1;jettySize=auto;html=1;fontStyle=1;endSize=4;" edge="1" parent="1" target="SNnAPRE6H2LCFaZrrpsA-26">
          <mxGeometry relative="1" as="geometry">
            <mxPoint x="380" y="400" as="targetPoint" />
            <mxPoint x="420" y="480" as="sourcePoint" />
          </mxGeometry>
        </mxCell>
        <mxCell id="SNnAPRE6H2LCFaZrrpsA-32" style="rounded=0;orthogonalLoop=1;jettySize=auto;html=1;" edge="1" parent="1" source="SNnAPRE6H2LCFaZrrpsA-25" target="SNnAPRE6H2LCFaZrrpsA-21">
          <mxGeometry relative="1" as="geometry">
            <mxPoint x="550" y="390" as="sourcePoint" />
            <mxPoint x="339.9999999999999" y="300" as="targetPoint" />
            <Array as="points">
              <mxPoint x="410" y="430" />
              <mxPoint x="410" y="370" />
            </Array>
          </mxGeometry>
        </mxCell>
        <mxCell id="SNnAPRE6H2LCFaZrrpsA-33" style="rounded=0;orthogonalLoop=1;jettySize=auto;html=1;" edge="1" parent="1" source="SNnAPRE6H2LCFaZrrpsA-26" target="SNnAPRE6H2LCFaZrrpsA-21">
          <mxGeometry relative="1" as="geometry">
            <mxPoint x="550" y="390" as="sourcePoint" />
            <mxPoint x="339.9999999999999" y="300" as="targetPoint" />
            <Array as="points">
              <mxPoint x="410" y="460" />
              <mxPoint x="410" y="370" />
            </Array>
          </mxGeometry>
        </mxCell>
        <mxCell id="SNnAPRE6H2LCFaZrrpsA-34" value="b&amp;nbsp; &amp;nbsp; &amp;nbsp; &amp;nbsp;&amp;nbsp;" style="rounded=1;whiteSpace=wrap;html=1;fontStyle=1;strokeWidth=2;fontSize=11;fillColor=#fff2cc;strokeColor=#d6b656;verticalAlign=middle;" vertex="1" parent="1">
          <mxGeometry x="460" y="220" width="80" height="20" as="geometry" />
        </mxCell>
        <mxCell id="SNnAPRE6H2LCFaZrrpsA-35" value="b&amp;nbsp; &amp;nbsp; &amp;nbsp; &amp;nbsp;&amp;nbsp;" style="rounded=1;whiteSpace=wrap;html=1;fontStyle=1;strokeWidth=2;fontSize=11;fillColor=#fff2cc;strokeColor=#d6b656;verticalAlign=middle;" vertex="1" parent="1">
          <mxGeometry x="620" y="220" width="80" height="20" as="geometry" />
        </mxCell>
        <mxCell id="SNnAPRE6H2LCFaZrrpsA-36" value="b&amp;nbsp; &amp;nbsp; &amp;nbsp; &amp;nbsp;&amp;nbsp;" style="rounded=1;whiteSpace=wrap;html=1;fontStyle=1;strokeWidth=2;fontSize=11;fillColor=#fff2cc;strokeColor=#d6b656;verticalAlign=middle;" vertex="1" parent="1">
          <mxGeometry x="780" y="220" width="80" height="20" as="geometry" />
        </mxCell>
        <mxCell id="SNnAPRE6H2LCFaZrrpsA-37" style="rounded=0;orthogonalLoop=1;jettySize=auto;html=1;" edge="1" parent="1" source="SNnAPRE6H2LCFaZrrpsA-38">
          <mxGeometry relative="1" as="geometry">
            <mxPoint x="360" y="380" as="targetPoint" />
            <Array as="points">
              <mxPoint x="370" y="370" />
            </Array>
          </mxGeometry>
        </mxCell>
        <mxCell id="SNnAPRE6H2LCFaZrrpsA-38" value="q&amp;nbsp;" style="rounded=1;whiteSpace=wrap;html=1;fontStyle=1;strokeWidth=2;fontSize=17;fillColor=#f8cecc;strokeColor=#b85450;" vertex="1" parent="1">
          <mxGeometry x="360" y="330" width="20" height="20" as="geometry" />
        </mxCell>
        <mxCell id="SNnAPRE6H2LCFaZrrpsA-39" style="rounded=0;orthogonalLoop=1;jettySize=auto;html=1;" edge="1" parent="1" source="SNnAPRE6H2LCFaZrrpsA-204">
          <mxGeometry relative="1" as="geometry">
            <mxPoint x="340" y="390" as="targetPoint" />
          </mxGeometry>
        </mxCell>
        <mxCell id="SNnAPRE6H2LCFaZrrpsA-40" style="rounded=0;orthogonalLoop=1;jettySize=auto;html=1;" edge="1" parent="1">
          <mxGeometry relative="1" as="geometry">
            <mxPoint x="340" y="420" as="targetPoint" />
            <mxPoint x="320" y="420" as="sourcePoint" />
          </mxGeometry>
        </mxCell>
        <mxCell id="SNnAPRE6H2LCFaZrrpsA-41" style="rounded=0;orthogonalLoop=1;jettySize=auto;html=1;" edge="1" parent="1">
          <mxGeometry relative="1" as="geometry">
            <mxPoint x="340" y="450" as="targetPoint" />
            <mxPoint x="320" y="450" as="sourcePoint" />
          </mxGeometry>
        </mxCell>
        <mxCell id="SNnAPRE6H2LCFaZrrpsA-42" style="rounded=0;orthogonalLoop=1;jettySize=auto;html=1;entryX=0;entryY=0.5;entryDx=0;entryDy=0;" edge="1" parent="1">
          <mxGeometry relative="1" as="geometry">
            <mxPoint x="340" y="480" as="targetPoint" />
            <mxPoint x="320" y="480" as="sourcePoint" />
          </mxGeometry>
        </mxCell>
        <mxCell id="SNnAPRE6H2LCFaZrrpsA-43" style="rounded=0;orthogonalLoop=1;jettySize=auto;html=1;" edge="1" parent="1" target="SNnAPRE6H2LCFaZrrpsA-23">
          <mxGeometry relative="1" as="geometry">
            <mxPoint x="360" y="390" as="sourcePoint" />
          </mxGeometry>
        </mxCell>
        <mxCell id="SNnAPRE6H2LCFaZrrpsA-44" style="rounded=0;orthogonalLoop=1;jettySize=auto;html=1;" edge="1" parent="1" target="SNnAPRE6H2LCFaZrrpsA-24">
          <mxGeometry relative="1" as="geometry">
            <mxPoint x="360" y="420" as="sourcePoint" />
          </mxGeometry>
        </mxCell>
        <mxCell id="SNnAPRE6H2LCFaZrrpsA-45" style="rounded=0;orthogonalLoop=1;jettySize=auto;html=1;" edge="1" parent="1" target="SNnAPRE6H2LCFaZrrpsA-25">
          <mxGeometry relative="1" as="geometry">
            <mxPoint x="360" y="450" as="sourcePoint" />
          </mxGeometry>
        </mxCell>
        <mxCell id="SNnAPRE6H2LCFaZrrpsA-46" style="rounded=0;orthogonalLoop=1;jettySize=auto;html=1;entryX=0;entryY=0.5;entryDx=0;entryDy=0;" edge="1" parent="1" target="SNnAPRE6H2LCFaZrrpsA-26">
          <mxGeometry relative="1" as="geometry">
            <mxPoint x="360" y="480" as="sourcePoint" />
          </mxGeometry>
        </mxCell>
        <mxCell id="SNnAPRE6H2LCFaZrrpsA-47" style="rounded=0;orthogonalLoop=1;jettySize=auto;html=1;" edge="1" parent="1" source="SNnAPRE6H2LCFaZrrpsA-38">
          <mxGeometry relative="1" as="geometry">
            <mxPoint x="360" y="410" as="targetPoint" />
            <Array as="points">
              <mxPoint x="370" y="360" />
              <mxPoint x="370" y="400" />
            </Array>
          </mxGeometry>
        </mxCell>
        <mxCell id="SNnAPRE6H2LCFaZrrpsA-48" style="rounded=0;orthogonalLoop=1;jettySize=auto;html=1;" edge="1" parent="1" source="SNnAPRE6H2LCFaZrrpsA-38">
          <mxGeometry relative="1" as="geometry">
            <mxPoint x="360" y="440" as="targetPoint" />
            <Array as="points">
              <mxPoint x="370" y="360" />
              <mxPoint x="370" y="430" />
            </Array>
          </mxGeometry>
        </mxCell>
        <mxCell id="SNnAPRE6H2LCFaZrrpsA-49" style="rounded=0;orthogonalLoop=1;jettySize=auto;html=1;" edge="1" parent="1" source="SNnAPRE6H2LCFaZrrpsA-38">
          <mxGeometry relative="1" as="geometry">
            <mxPoint x="360" y="470" as="targetPoint" />
            <Array as="points">
              <mxPoint x="370" y="360" />
              <mxPoint x="370" y="460" />
            </Array>
          </mxGeometry>
        </mxCell>
        <mxCell id="SNnAPRE6H2LCFaZrrpsA-50" value="" style="ellipse;whiteSpace=wrap;html=1;aspect=fixed;fillColor=#000000;fontStyle=1" vertex="1" parent="1">
          <mxGeometry x="345" y="385" width="10" height="10" as="geometry" />
        </mxCell>
        <mxCell id="SNnAPRE6H2LCFaZrrpsA-51" value="" style="ellipse;whiteSpace=wrap;html=1;aspect=fixed;fillColor=#000000;fontStyle=1" vertex="1" parent="1">
          <mxGeometry x="345" y="415" width="10" height="10" as="geometry" />
        </mxCell>
        <mxCell id="SNnAPRE6H2LCFaZrrpsA-52" value="" style="ellipse;whiteSpace=wrap;html=1;aspect=fixed;fillColor=#000000;fontStyle=1" vertex="1" parent="1">
          <mxGeometry x="345" y="445" width="10" height="10" as="geometry" />
        </mxCell>
        <mxCell id="SNnAPRE6H2LCFaZrrpsA-53" value="" style="ellipse;whiteSpace=wrap;html=1;aspect=fixed;fillColor=#000000;fontStyle=1" vertex="1" parent="1">
          <mxGeometry x="345" y="475" width="10" height="10" as="geometry" />
        </mxCell>
        <mxCell id="SNnAPRE6H2LCFaZrrpsA-54" style="rounded=0;orthogonalLoop=1;jettySize=auto;html=1;" edge="1" parent="1" source="SNnAPRE6H2LCFaZrrpsA-58" target="SNnAPRE6H2LCFaZrrpsA-55">
          <mxGeometry relative="1" as="geometry">
            <mxPoint x="710" y="390" as="sourcePoint" />
            <mxPoint x="499.9999999999999" y="300" as="targetPoint" />
            <Array as="points">
              <mxPoint x="570" y="400" />
              <mxPoint x="570" y="370" />
            </Array>
          </mxGeometry>
        </mxCell>
        <mxCell id="SNnAPRE6H2LCFaZrrpsA-55" value="+" style="ellipse;whiteSpace=wrap;html=1;aspect=fixed;fontStyle=1" vertex="1" parent="1">
          <mxGeometry x="560" y="330" width="20" height="20" as="geometry" />
        </mxCell>
        <mxCell id="SNnAPRE6H2LCFaZrrpsA-56" style="rounded=0;orthogonalLoop=1;jettySize=auto;html=1;" edge="1" parent="1" source="SNnAPRE6H2LCFaZrrpsA-57" target="SNnAPRE6H2LCFaZrrpsA-55">
          <mxGeometry relative="1" as="geometry">
            <Array as="points">
              <mxPoint x="570" y="370" />
            </Array>
          </mxGeometry>
        </mxCell>
        <mxCell id="SNnAPRE6H2LCFaZrrpsA-57" value="×" style="ellipse;whiteSpace=wrap;html=1;aspect=fixed;fontStyle=1" vertex="1" parent="1">
          <mxGeometry x="540" y="380" width="20" height="20" as="geometry" />
        </mxCell>
        <mxCell id="SNnAPRE6H2LCFaZrrpsA-58" value="×" style="ellipse;whiteSpace=wrap;html=1;aspect=fixed;fontStyle=1" vertex="1" parent="1">
          <mxGeometry x="540" y="410" width="20" height="20" as="geometry" />
        </mxCell>
        <mxCell id="SNnAPRE6H2LCFaZrrpsA-59" value="×" style="ellipse;whiteSpace=wrap;html=1;aspect=fixed;fontStyle=1" vertex="1" parent="1">
          <mxGeometry x="540" y="440" width="20" height="20" as="geometry" />
        </mxCell>
        <mxCell id="SNnAPRE6H2LCFaZrrpsA-60" value="×" style="ellipse;whiteSpace=wrap;html=1;aspect=fixed;fontStyle=1" vertex="1" parent="1">
          <mxGeometry x="540" y="470" width="20" height="20" as="geometry" />
        </mxCell>
        <mxCell id="SNnAPRE6H2LCFaZrrpsA-61" style="rounded=0;orthogonalLoop=1;jettySize=auto;html=1;fontStyle=1;endSize=4;" edge="1" parent="1" target="SNnAPRE6H2LCFaZrrpsA-57">
          <mxGeometry relative="1" as="geometry">
            <mxPoint x="540" y="400" as="targetPoint" />
            <mxPoint x="580" y="390" as="sourcePoint" />
          </mxGeometry>
        </mxCell>
        <mxCell id="SNnAPRE6H2LCFaZrrpsA-62" style="rounded=0;orthogonalLoop=1;jettySize=auto;html=1;fontStyle=1;endSize=4;" edge="1" parent="1" target="SNnAPRE6H2LCFaZrrpsA-58">
          <mxGeometry relative="1" as="geometry">
            <mxPoint x="540" y="400" as="targetPoint" />
            <mxPoint x="580" y="420" as="sourcePoint" />
          </mxGeometry>
        </mxCell>
        <mxCell id="SNnAPRE6H2LCFaZrrpsA-63" style="rounded=0;orthogonalLoop=1;jettySize=auto;html=1;fontStyle=1;endSize=4;" edge="1" parent="1" target="SNnAPRE6H2LCFaZrrpsA-59">
          <mxGeometry relative="1" as="geometry">
            <mxPoint x="540" y="400" as="targetPoint" />
            <mxPoint x="580" y="450" as="sourcePoint" />
          </mxGeometry>
        </mxCell>
        <mxCell id="SNnAPRE6H2LCFaZrrpsA-64" style="rounded=0;orthogonalLoop=1;jettySize=auto;html=1;fontStyle=1;endSize=4;" edge="1" parent="1" target="SNnAPRE6H2LCFaZrrpsA-60">
          <mxGeometry relative="1" as="geometry">
            <mxPoint x="540" y="400" as="targetPoint" />
            <mxPoint x="580" y="480" as="sourcePoint" />
          </mxGeometry>
        </mxCell>
        <mxCell id="SNnAPRE6H2LCFaZrrpsA-65" style="rounded=0;orthogonalLoop=1;jettySize=auto;html=1;" edge="1" parent="1" source="SNnAPRE6H2LCFaZrrpsA-59" target="SNnAPRE6H2LCFaZrrpsA-55">
          <mxGeometry relative="1" as="geometry">
            <mxPoint x="710" y="390" as="sourcePoint" />
            <mxPoint x="499.9999999999999" y="300" as="targetPoint" />
            <Array as="points">
              <mxPoint x="570" y="430" />
              <mxPoint x="570" y="370" />
            </Array>
          </mxGeometry>
        </mxCell>
        <mxCell id="SNnAPRE6H2LCFaZrrpsA-66" style="rounded=0;orthogonalLoop=1;jettySize=auto;html=1;" edge="1" parent="1" source="SNnAPRE6H2LCFaZrrpsA-60" target="SNnAPRE6H2LCFaZrrpsA-55">
          <mxGeometry relative="1" as="geometry">
            <mxPoint x="710" y="390" as="sourcePoint" />
            <mxPoint x="499.9999999999999" y="300" as="targetPoint" />
            <Array as="points">
              <mxPoint x="570" y="460" />
              <mxPoint x="570" y="370" />
            </Array>
          </mxGeometry>
        </mxCell>
        <mxCell id="SNnAPRE6H2LCFaZrrpsA-67" style="rounded=0;orthogonalLoop=1;jettySize=auto;html=1;" edge="1" parent="1" source="SNnAPRE6H2LCFaZrrpsA-68">
          <mxGeometry relative="1" as="geometry">
            <mxPoint x="520" y="380" as="targetPoint" />
            <Array as="points">
              <mxPoint x="530" y="370" />
            </Array>
          </mxGeometry>
        </mxCell>
        <mxCell id="SNnAPRE6H2LCFaZrrpsA-68" value="q&lt;span style=&quot;font-size: 14.1667px;&quot;&gt;&amp;nbsp;&lt;/span&gt;" style="rounded=1;whiteSpace=wrap;html=1;fontStyle=1;strokeWidth=2;fontSize=17;fillColor=#e1d5e7;strokeColor=#9673a6;" vertex="1" parent="1">
          <mxGeometry x="520" y="330" width="20" height="20" as="geometry" />
        </mxCell>
        <mxCell id="SNnAPRE6H2LCFaZrrpsA-69" style="rounded=0;orthogonalLoop=1;jettySize=auto;html=1;" edge="1" parent="1">
          <mxGeometry relative="1" as="geometry">
            <mxPoint x="500" y="390" as="targetPoint" />
            <mxPoint x="480" y="390" as="sourcePoint" />
          </mxGeometry>
        </mxCell>
        <mxCell id="SNnAPRE6H2LCFaZrrpsA-70" style="rounded=0;orthogonalLoop=1;jettySize=auto;html=1;" edge="1" parent="1">
          <mxGeometry relative="1" as="geometry">
            <mxPoint x="500" y="420" as="targetPoint" />
            <mxPoint x="480" y="420" as="sourcePoint" />
          </mxGeometry>
        </mxCell>
        <mxCell id="SNnAPRE6H2LCFaZrrpsA-71" style="rounded=0;orthogonalLoop=1;jettySize=auto;html=1;" edge="1" parent="1">
          <mxGeometry relative="1" as="geometry">
            <mxPoint x="500" y="450" as="targetPoint" />
            <mxPoint x="480" y="450" as="sourcePoint" />
          </mxGeometry>
        </mxCell>
        <mxCell id="SNnAPRE6H2LCFaZrrpsA-72" style="rounded=0;orthogonalLoop=1;jettySize=auto;html=1;entryX=0;entryY=0.5;entryDx=0;entryDy=0;" edge="1" parent="1">
          <mxGeometry relative="1" as="geometry">
            <mxPoint x="500" y="480" as="targetPoint" />
            <mxPoint x="480" y="480" as="sourcePoint" />
          </mxGeometry>
        </mxCell>
        <mxCell id="SNnAPRE6H2LCFaZrrpsA-73" style="rounded=0;orthogonalLoop=1;jettySize=auto;html=1;" edge="1" parent="1" target="SNnAPRE6H2LCFaZrrpsA-57">
          <mxGeometry relative="1" as="geometry">
            <mxPoint x="520" y="390" as="sourcePoint" />
          </mxGeometry>
        </mxCell>
        <mxCell id="SNnAPRE6H2LCFaZrrpsA-74" style="rounded=0;orthogonalLoop=1;jettySize=auto;html=1;" edge="1" parent="1" target="SNnAPRE6H2LCFaZrrpsA-58">
          <mxGeometry relative="1" as="geometry">
            <mxPoint x="520" y="420" as="sourcePoint" />
          </mxGeometry>
        </mxCell>
        <mxCell id="SNnAPRE6H2LCFaZrrpsA-75" style="rounded=0;orthogonalLoop=1;jettySize=auto;html=1;" edge="1" parent="1" target="SNnAPRE6H2LCFaZrrpsA-59">
          <mxGeometry relative="1" as="geometry">
            <mxPoint x="520" y="450" as="sourcePoint" />
          </mxGeometry>
        </mxCell>
        <mxCell id="SNnAPRE6H2LCFaZrrpsA-76" style="rounded=0;orthogonalLoop=1;jettySize=auto;html=1;entryX=0;entryY=0.5;entryDx=0;entryDy=0;" edge="1" parent="1" target="SNnAPRE6H2LCFaZrrpsA-60">
          <mxGeometry relative="1" as="geometry">
            <mxPoint x="520" y="480" as="sourcePoint" />
          </mxGeometry>
        </mxCell>
        <mxCell id="SNnAPRE6H2LCFaZrrpsA-77" style="rounded=0;orthogonalLoop=1;jettySize=auto;html=1;" edge="1" parent="1" source="SNnAPRE6H2LCFaZrrpsA-68">
          <mxGeometry relative="1" as="geometry">
            <mxPoint x="520" y="410" as="targetPoint" />
            <Array as="points">
              <mxPoint x="530" y="360" />
              <mxPoint x="530" y="400" />
            </Array>
          </mxGeometry>
        </mxCell>
        <mxCell id="SNnAPRE6H2LCFaZrrpsA-78" style="rounded=0;orthogonalLoop=1;jettySize=auto;html=1;" edge="1" parent="1" source="SNnAPRE6H2LCFaZrrpsA-68">
          <mxGeometry relative="1" as="geometry">
            <mxPoint x="520" y="440" as="targetPoint" />
            <Array as="points">
              <mxPoint x="530" y="360" />
              <mxPoint x="530" y="430" />
            </Array>
          </mxGeometry>
        </mxCell>
        <mxCell id="SNnAPRE6H2LCFaZrrpsA-79" style="rounded=0;orthogonalLoop=1;jettySize=auto;html=1;" edge="1" parent="1" source="SNnAPRE6H2LCFaZrrpsA-68">
          <mxGeometry relative="1" as="geometry">
            <mxPoint x="520" y="470" as="targetPoint" />
            <Array as="points">
              <mxPoint x="530" y="360" />
              <mxPoint x="530" y="460" />
            </Array>
          </mxGeometry>
        </mxCell>
        <mxCell id="SNnAPRE6H2LCFaZrrpsA-80" value="" style="ellipse;whiteSpace=wrap;html=1;aspect=fixed;fillColor=#000000;fontStyle=1" vertex="1" parent="1">
          <mxGeometry x="505" y="385" width="10" height="10" as="geometry" />
        </mxCell>
        <mxCell id="SNnAPRE6H2LCFaZrrpsA-81" value="" style="ellipse;whiteSpace=wrap;html=1;aspect=fixed;fillColor=#000000;fontStyle=1" vertex="1" parent="1">
          <mxGeometry x="505" y="415" width="10" height="10" as="geometry" />
        </mxCell>
        <mxCell id="SNnAPRE6H2LCFaZrrpsA-82" value="" style="ellipse;whiteSpace=wrap;html=1;aspect=fixed;fillColor=#000000;fontStyle=1" vertex="1" parent="1">
          <mxGeometry x="505" y="445" width="10" height="10" as="geometry" />
        </mxCell>
        <mxCell id="SNnAPRE6H2LCFaZrrpsA-83" value="" style="ellipse;whiteSpace=wrap;html=1;aspect=fixed;fillColor=#000000;fontStyle=1" vertex="1" parent="1">
          <mxGeometry x="505" y="475" width="10" height="10" as="geometry" />
        </mxCell>
        <mxCell id="SNnAPRE6H2LCFaZrrpsA-84" style="rounded=0;orthogonalLoop=1;jettySize=auto;html=1;" edge="1" parent="1" source="SNnAPRE6H2LCFaZrrpsA-88" target="SNnAPRE6H2LCFaZrrpsA-85">
          <mxGeometry relative="1" as="geometry">
            <mxPoint x="870" y="390" as="sourcePoint" />
            <mxPoint x="659.9999999999999" y="300" as="targetPoint" />
            <Array as="points">
              <mxPoint x="730" y="400" />
              <mxPoint x="730" y="370" />
            </Array>
          </mxGeometry>
        </mxCell>
        <mxCell id="SNnAPRE6H2LCFaZrrpsA-85" value="+" style="ellipse;whiteSpace=wrap;html=1;aspect=fixed;fontStyle=1" vertex="1" parent="1">
          <mxGeometry x="720" y="330" width="20" height="20" as="geometry" />
        </mxCell>
        <mxCell id="SNnAPRE6H2LCFaZrrpsA-86" style="rounded=0;orthogonalLoop=1;jettySize=auto;html=1;" edge="1" parent="1" source="SNnAPRE6H2LCFaZrrpsA-87" target="SNnAPRE6H2LCFaZrrpsA-85">
          <mxGeometry relative="1" as="geometry">
            <Array as="points">
              <mxPoint x="730" y="370" />
            </Array>
          </mxGeometry>
        </mxCell>
        <mxCell id="SNnAPRE6H2LCFaZrrpsA-87" value="×" style="ellipse;whiteSpace=wrap;html=1;aspect=fixed;fontStyle=1" vertex="1" parent="1">
          <mxGeometry x="700" y="380" width="20" height="20" as="geometry" />
        </mxCell>
        <mxCell id="SNnAPRE6H2LCFaZrrpsA-88" value="×" style="ellipse;whiteSpace=wrap;html=1;aspect=fixed;fontStyle=1" vertex="1" parent="1">
          <mxGeometry x="700" y="410" width="20" height="20" as="geometry" />
        </mxCell>
        <mxCell id="SNnAPRE6H2LCFaZrrpsA-89" value="×" style="ellipse;whiteSpace=wrap;html=1;aspect=fixed;fontStyle=1" vertex="1" parent="1">
          <mxGeometry x="700" y="440" width="20" height="20" as="geometry" />
        </mxCell>
        <mxCell id="SNnAPRE6H2LCFaZrrpsA-90" value="×" style="ellipse;whiteSpace=wrap;html=1;aspect=fixed;fontStyle=1" vertex="1" parent="1">
          <mxGeometry x="700" y="470" width="20" height="20" as="geometry" />
        </mxCell>
        <mxCell id="SNnAPRE6H2LCFaZrrpsA-91" style="rounded=0;orthogonalLoop=1;jettySize=auto;html=1;fontStyle=1;endSize=4;" edge="1" parent="1" target="SNnAPRE6H2LCFaZrrpsA-87">
          <mxGeometry relative="1" as="geometry">
            <mxPoint x="700" y="400" as="targetPoint" />
            <mxPoint x="740" y="390" as="sourcePoint" />
          </mxGeometry>
        </mxCell>
        <mxCell id="SNnAPRE6H2LCFaZrrpsA-92" style="rounded=0;orthogonalLoop=1;jettySize=auto;html=1;fontStyle=1;endSize=4;" edge="1" parent="1" target="SNnAPRE6H2LCFaZrrpsA-88">
          <mxGeometry relative="1" as="geometry">
            <mxPoint x="700" y="400" as="targetPoint" />
            <mxPoint x="740" y="420" as="sourcePoint" />
          </mxGeometry>
        </mxCell>
        <mxCell id="SNnAPRE6H2LCFaZrrpsA-93" style="rounded=0;orthogonalLoop=1;jettySize=auto;html=1;fontStyle=1;endSize=4;" edge="1" parent="1" target="SNnAPRE6H2LCFaZrrpsA-89">
          <mxGeometry relative="1" as="geometry">
            <mxPoint x="700" y="400" as="targetPoint" />
            <mxPoint x="740" y="450" as="sourcePoint" />
          </mxGeometry>
        </mxCell>
        <mxCell id="SNnAPRE6H2LCFaZrrpsA-94" style="rounded=0;orthogonalLoop=1;jettySize=auto;html=1;fontStyle=1;endSize=4;" edge="1" parent="1" target="SNnAPRE6H2LCFaZrrpsA-90">
          <mxGeometry relative="1" as="geometry">
            <mxPoint x="700" y="400" as="targetPoint" />
            <mxPoint x="740" y="480" as="sourcePoint" />
          </mxGeometry>
        </mxCell>
        <mxCell id="SNnAPRE6H2LCFaZrrpsA-95" style="rounded=0;orthogonalLoop=1;jettySize=auto;html=1;" edge="1" parent="1" source="SNnAPRE6H2LCFaZrrpsA-89" target="SNnAPRE6H2LCFaZrrpsA-85">
          <mxGeometry relative="1" as="geometry">
            <mxPoint x="870" y="390" as="sourcePoint" />
            <mxPoint x="659.9999999999999" y="300" as="targetPoint" />
            <Array as="points">
              <mxPoint x="730" y="430" />
              <mxPoint x="730" y="370" />
            </Array>
          </mxGeometry>
        </mxCell>
        <mxCell id="SNnAPRE6H2LCFaZrrpsA-96" style="rounded=0;orthogonalLoop=1;jettySize=auto;html=1;" edge="1" parent="1" source="SNnAPRE6H2LCFaZrrpsA-90" target="SNnAPRE6H2LCFaZrrpsA-85">
          <mxGeometry relative="1" as="geometry">
            <mxPoint x="870" y="390" as="sourcePoint" />
            <mxPoint x="659.9999999999999" y="300" as="targetPoint" />
            <Array as="points">
              <mxPoint x="730" y="460" />
              <mxPoint x="730" y="370" />
            </Array>
          </mxGeometry>
        </mxCell>
        <mxCell id="SNnAPRE6H2LCFaZrrpsA-97" style="rounded=0;orthogonalLoop=1;jettySize=auto;html=1;" edge="1" parent="1" source="SNnAPRE6H2LCFaZrrpsA-98">
          <mxGeometry relative="1" as="geometry">
            <mxPoint x="680" y="380" as="targetPoint" />
            <Array as="points">
              <mxPoint x="690" y="370" />
            </Array>
          </mxGeometry>
        </mxCell>
        <mxCell id="SNnAPRE6H2LCFaZrrpsA-98" value="q&lt;span style=&quot;font-size: 14.1667px;&quot;&gt;&amp;nbsp;&lt;/span&gt;" style="rounded=1;whiteSpace=wrap;html=1;fontStyle=1;strokeWidth=2;fontSize=17;fillColor=#dae8fc;strokeColor=#6c8ebf;" vertex="1" parent="1">
          <mxGeometry x="680" y="330" width="20" height="20" as="geometry" />
        </mxCell>
        <mxCell id="SNnAPRE6H2LCFaZrrpsA-99" style="rounded=0;orthogonalLoop=1;jettySize=auto;html=1;" edge="1" parent="1">
          <mxGeometry relative="1" as="geometry">
            <mxPoint x="660" y="390" as="targetPoint" />
            <mxPoint x="640" y="390" as="sourcePoint" />
          </mxGeometry>
        </mxCell>
        <mxCell id="SNnAPRE6H2LCFaZrrpsA-100" style="rounded=0;orthogonalLoop=1;jettySize=auto;html=1;" edge="1" parent="1">
          <mxGeometry relative="1" as="geometry">
            <mxPoint x="660" y="420" as="targetPoint" />
            <mxPoint x="640" y="420" as="sourcePoint" />
          </mxGeometry>
        </mxCell>
        <mxCell id="SNnAPRE6H2LCFaZrrpsA-101" style="rounded=0;orthogonalLoop=1;jettySize=auto;html=1;" edge="1" parent="1">
          <mxGeometry relative="1" as="geometry">
            <mxPoint x="660" y="450" as="targetPoint" />
            <mxPoint x="640" y="450" as="sourcePoint" />
          </mxGeometry>
        </mxCell>
        <mxCell id="SNnAPRE6H2LCFaZrrpsA-102" style="rounded=0;orthogonalLoop=1;jettySize=auto;html=1;entryX=0;entryY=0.5;entryDx=0;entryDy=0;" edge="1" parent="1">
          <mxGeometry relative="1" as="geometry">
            <mxPoint x="660" y="480" as="targetPoint" />
            <mxPoint x="640" y="480" as="sourcePoint" />
          </mxGeometry>
        </mxCell>
        <mxCell id="SNnAPRE6H2LCFaZrrpsA-103" style="rounded=0;orthogonalLoop=1;jettySize=auto;html=1;" edge="1" parent="1" target="SNnAPRE6H2LCFaZrrpsA-87">
          <mxGeometry relative="1" as="geometry">
            <mxPoint x="680" y="390" as="sourcePoint" />
          </mxGeometry>
        </mxCell>
        <mxCell id="SNnAPRE6H2LCFaZrrpsA-104" style="rounded=0;orthogonalLoop=1;jettySize=auto;html=1;" edge="1" parent="1" target="SNnAPRE6H2LCFaZrrpsA-88">
          <mxGeometry relative="1" as="geometry">
            <mxPoint x="680" y="420" as="sourcePoint" />
          </mxGeometry>
        </mxCell>
        <mxCell id="SNnAPRE6H2LCFaZrrpsA-105" style="rounded=0;orthogonalLoop=1;jettySize=auto;html=1;" edge="1" parent="1" target="SNnAPRE6H2LCFaZrrpsA-89">
          <mxGeometry relative="1" as="geometry">
            <mxPoint x="680" y="450" as="sourcePoint" />
          </mxGeometry>
        </mxCell>
        <mxCell id="SNnAPRE6H2LCFaZrrpsA-106" style="rounded=0;orthogonalLoop=1;jettySize=auto;html=1;entryX=0;entryY=0.5;entryDx=0;entryDy=0;" edge="1" parent="1" target="SNnAPRE6H2LCFaZrrpsA-90">
          <mxGeometry relative="1" as="geometry">
            <mxPoint x="680" y="480" as="sourcePoint" />
          </mxGeometry>
        </mxCell>
        <mxCell id="SNnAPRE6H2LCFaZrrpsA-107" style="rounded=0;orthogonalLoop=1;jettySize=auto;html=1;" edge="1" parent="1" source="SNnAPRE6H2LCFaZrrpsA-98">
          <mxGeometry relative="1" as="geometry">
            <mxPoint x="680" y="410" as="targetPoint" />
            <Array as="points">
              <mxPoint x="690" y="360" />
              <mxPoint x="690" y="400" />
            </Array>
          </mxGeometry>
        </mxCell>
        <mxCell id="SNnAPRE6H2LCFaZrrpsA-108" style="rounded=0;orthogonalLoop=1;jettySize=auto;html=1;" edge="1" parent="1" source="SNnAPRE6H2LCFaZrrpsA-98">
          <mxGeometry relative="1" as="geometry">
            <mxPoint x="680" y="440" as="targetPoint" />
            <Array as="points">
              <mxPoint x="690" y="360" />
              <mxPoint x="690" y="430" />
            </Array>
          </mxGeometry>
        </mxCell>
        <mxCell id="SNnAPRE6H2LCFaZrrpsA-109" style="rounded=0;orthogonalLoop=1;jettySize=auto;html=1;" edge="1" parent="1" source="SNnAPRE6H2LCFaZrrpsA-98">
          <mxGeometry relative="1" as="geometry">
            <mxPoint x="680" y="470" as="targetPoint" />
            <Array as="points">
              <mxPoint x="690" y="360" />
              <mxPoint x="690" y="460" />
            </Array>
          </mxGeometry>
        </mxCell>
        <mxCell id="SNnAPRE6H2LCFaZrrpsA-110" value="" style="ellipse;whiteSpace=wrap;html=1;aspect=fixed;fillColor=#000000;fontStyle=1" vertex="1" parent="1">
          <mxGeometry x="665" y="385" width="10" height="10" as="geometry" />
        </mxCell>
        <mxCell id="SNnAPRE6H2LCFaZrrpsA-111" value="" style="ellipse;whiteSpace=wrap;html=1;aspect=fixed;fillColor=#000000;fontStyle=1" vertex="1" parent="1">
          <mxGeometry x="665" y="415" width="10" height="10" as="geometry" />
        </mxCell>
        <mxCell id="SNnAPRE6H2LCFaZrrpsA-112" value="" style="ellipse;whiteSpace=wrap;html=1;aspect=fixed;fillColor=#000000;fontStyle=1" vertex="1" parent="1">
          <mxGeometry x="665" y="445" width="10" height="10" as="geometry" />
        </mxCell>
        <mxCell id="SNnAPRE6H2LCFaZrrpsA-113" value="" style="ellipse;whiteSpace=wrap;html=1;aspect=fixed;fillColor=#000000;fontStyle=1" vertex="1" parent="1">
          <mxGeometry x="665" y="475" width="10" height="10" as="geometry" />
        </mxCell>
        <mxCell id="SNnAPRE6H2LCFaZrrpsA-114" style="rounded=0;orthogonalLoop=1;jettySize=auto;html=1;" edge="1" parent="1" source="SNnAPRE6H2LCFaZrrpsA-118" target="SNnAPRE6H2LCFaZrrpsA-115">
          <mxGeometry relative="1" as="geometry">
            <mxPoint x="1030" y="390" as="sourcePoint" />
            <mxPoint x="819.9999999999999" y="300" as="targetPoint" />
            <Array as="points">
              <mxPoint x="890" y="400" />
              <mxPoint x="890" y="370" />
            </Array>
          </mxGeometry>
        </mxCell>
        <mxCell id="SNnAPRE6H2LCFaZrrpsA-115" value="+" style="ellipse;whiteSpace=wrap;html=1;aspect=fixed;fontStyle=1" vertex="1" parent="1">
          <mxGeometry x="880" y="330" width="20" height="20" as="geometry" />
        </mxCell>
        <mxCell id="SNnAPRE6H2LCFaZrrpsA-116" style="rounded=0;orthogonalLoop=1;jettySize=auto;html=1;" edge="1" parent="1" source="SNnAPRE6H2LCFaZrrpsA-117" target="SNnAPRE6H2LCFaZrrpsA-115">
          <mxGeometry relative="1" as="geometry">
            <Array as="points">
              <mxPoint x="890" y="370" />
            </Array>
          </mxGeometry>
        </mxCell>
        <mxCell id="SNnAPRE6H2LCFaZrrpsA-117" value="×" style="ellipse;whiteSpace=wrap;html=1;aspect=fixed;fontStyle=1" vertex="1" parent="1">
          <mxGeometry x="860" y="380" width="20" height="20" as="geometry" />
        </mxCell>
        <mxCell id="SNnAPRE6H2LCFaZrrpsA-118" value="×" style="ellipse;whiteSpace=wrap;html=1;aspect=fixed;fontStyle=1" vertex="1" parent="1">
          <mxGeometry x="860" y="410" width="20" height="20" as="geometry" />
        </mxCell>
        <mxCell id="SNnAPRE6H2LCFaZrrpsA-119" value="×" style="ellipse;whiteSpace=wrap;html=1;aspect=fixed;fontStyle=1" vertex="1" parent="1">
          <mxGeometry x="860" y="440" width="20" height="20" as="geometry" />
        </mxCell>
        <mxCell id="SNnAPRE6H2LCFaZrrpsA-120" value="×" style="ellipse;whiteSpace=wrap;html=1;aspect=fixed;fontStyle=1" vertex="1" parent="1">
          <mxGeometry x="860" y="470" width="20" height="20" as="geometry" />
        </mxCell>
        <mxCell id="SNnAPRE6H2LCFaZrrpsA-121" style="rounded=0;orthogonalLoop=1;jettySize=auto;html=1;fontStyle=1;endSize=4;" edge="1" parent="1" target="SNnAPRE6H2LCFaZrrpsA-117">
          <mxGeometry relative="1" as="geometry">
            <mxPoint x="860" y="400" as="targetPoint" />
            <mxPoint x="900" y="390" as="sourcePoint" />
          </mxGeometry>
        </mxCell>
        <mxCell id="SNnAPRE6H2LCFaZrrpsA-122" style="rounded=0;orthogonalLoop=1;jettySize=auto;html=1;fontStyle=1;endSize=4;" edge="1" parent="1" target="SNnAPRE6H2LCFaZrrpsA-118">
          <mxGeometry relative="1" as="geometry">
            <mxPoint x="860" y="400" as="targetPoint" />
            <mxPoint x="900" y="420" as="sourcePoint" />
          </mxGeometry>
        </mxCell>
        <mxCell id="SNnAPRE6H2LCFaZrrpsA-123" style="rounded=0;orthogonalLoop=1;jettySize=auto;html=1;fontStyle=1;endSize=4;" edge="1" parent="1" target="SNnAPRE6H2LCFaZrrpsA-119">
          <mxGeometry relative="1" as="geometry">
            <mxPoint x="860" y="400" as="targetPoint" />
            <mxPoint x="900" y="450" as="sourcePoint" />
          </mxGeometry>
        </mxCell>
        <mxCell id="SNnAPRE6H2LCFaZrrpsA-124" style="rounded=0;orthogonalLoop=1;jettySize=auto;html=1;fontStyle=1;endSize=4;" edge="1" parent="1" target="SNnAPRE6H2LCFaZrrpsA-120">
          <mxGeometry relative="1" as="geometry">
            <mxPoint x="860" y="400" as="targetPoint" />
            <mxPoint x="900" y="480" as="sourcePoint" />
          </mxGeometry>
        </mxCell>
        <mxCell id="SNnAPRE6H2LCFaZrrpsA-125" style="rounded=0;orthogonalLoop=1;jettySize=auto;html=1;" edge="1" parent="1" source="SNnAPRE6H2LCFaZrrpsA-119" target="SNnAPRE6H2LCFaZrrpsA-115">
          <mxGeometry relative="1" as="geometry">
            <mxPoint x="1030" y="390" as="sourcePoint" />
            <mxPoint x="819.9999999999999" y="300" as="targetPoint" />
            <Array as="points">
              <mxPoint x="890" y="430" />
              <mxPoint x="890" y="370" />
            </Array>
          </mxGeometry>
        </mxCell>
        <mxCell id="SNnAPRE6H2LCFaZrrpsA-126" style="rounded=0;orthogonalLoop=1;jettySize=auto;html=1;" edge="1" parent="1" source="SNnAPRE6H2LCFaZrrpsA-120" target="SNnAPRE6H2LCFaZrrpsA-115">
          <mxGeometry relative="1" as="geometry">
            <mxPoint x="1030" y="390" as="sourcePoint" />
            <mxPoint x="819.9999999999999" y="300" as="targetPoint" />
            <Array as="points">
              <mxPoint x="890" y="460" />
              <mxPoint x="890" y="370" />
            </Array>
          </mxGeometry>
        </mxCell>
        <mxCell id="SNnAPRE6H2LCFaZrrpsA-127" style="rounded=0;orthogonalLoop=1;jettySize=auto;html=1;" edge="1" parent="1" source="SNnAPRE6H2LCFaZrrpsA-128">
          <mxGeometry relative="1" as="geometry">
            <mxPoint x="840" y="380" as="targetPoint" />
            <Array as="points">
              <mxPoint x="850" y="370" />
            </Array>
          </mxGeometry>
        </mxCell>
        <mxCell id="SNnAPRE6H2LCFaZrrpsA-128" value="q&amp;nbsp;" style="rounded=1;whiteSpace=wrap;html=1;fontStyle=1;strokeWidth=2;fontSize=17;fillColor=#d5e8d4;strokeColor=#82b366;" vertex="1" parent="1">
          <mxGeometry x="840" y="330" width="20" height="20" as="geometry" />
        </mxCell>
        <mxCell id="SNnAPRE6H2LCFaZrrpsA-129" style="rounded=0;orthogonalLoop=1;jettySize=auto;html=1;" edge="1" parent="1">
          <mxGeometry relative="1" as="geometry">
            <mxPoint x="820" y="390" as="targetPoint" />
            <mxPoint x="800" y="390" as="sourcePoint" />
          </mxGeometry>
        </mxCell>
        <mxCell id="SNnAPRE6H2LCFaZrrpsA-130" style="rounded=0;orthogonalLoop=1;jettySize=auto;html=1;" edge="1" parent="1">
          <mxGeometry relative="1" as="geometry">
            <mxPoint x="820" y="420" as="targetPoint" />
            <mxPoint x="800" y="420" as="sourcePoint" />
          </mxGeometry>
        </mxCell>
        <mxCell id="SNnAPRE6H2LCFaZrrpsA-131" style="rounded=0;orthogonalLoop=1;jettySize=auto;html=1;" edge="1" parent="1">
          <mxGeometry relative="1" as="geometry">
            <mxPoint x="820" y="450" as="targetPoint" />
            <mxPoint x="800" y="450" as="sourcePoint" />
          </mxGeometry>
        </mxCell>
        <mxCell id="SNnAPRE6H2LCFaZrrpsA-132" style="rounded=0;orthogonalLoop=1;jettySize=auto;html=1;entryX=0;entryY=0.5;entryDx=0;entryDy=0;" edge="1" parent="1">
          <mxGeometry relative="1" as="geometry">
            <mxPoint x="820" y="480" as="targetPoint" />
            <mxPoint x="800" y="480" as="sourcePoint" />
          </mxGeometry>
        </mxCell>
        <mxCell id="SNnAPRE6H2LCFaZrrpsA-133" style="rounded=0;orthogonalLoop=1;jettySize=auto;html=1;" edge="1" parent="1" target="SNnAPRE6H2LCFaZrrpsA-117">
          <mxGeometry relative="1" as="geometry">
            <mxPoint x="840" y="390" as="sourcePoint" />
          </mxGeometry>
        </mxCell>
        <mxCell id="SNnAPRE6H2LCFaZrrpsA-134" style="rounded=0;orthogonalLoop=1;jettySize=auto;html=1;" edge="1" parent="1" target="SNnAPRE6H2LCFaZrrpsA-118">
          <mxGeometry relative="1" as="geometry">
            <mxPoint x="840" y="420" as="sourcePoint" />
          </mxGeometry>
        </mxCell>
        <mxCell id="SNnAPRE6H2LCFaZrrpsA-135" style="rounded=0;orthogonalLoop=1;jettySize=auto;html=1;" edge="1" parent="1" target="SNnAPRE6H2LCFaZrrpsA-119">
          <mxGeometry relative="1" as="geometry">
            <mxPoint x="840" y="450" as="sourcePoint" />
          </mxGeometry>
        </mxCell>
        <mxCell id="SNnAPRE6H2LCFaZrrpsA-136" style="rounded=0;orthogonalLoop=1;jettySize=auto;html=1;entryX=0;entryY=0.5;entryDx=0;entryDy=0;" edge="1" parent="1" target="SNnAPRE6H2LCFaZrrpsA-120">
          <mxGeometry relative="1" as="geometry">
            <mxPoint x="840" y="480" as="sourcePoint" />
          </mxGeometry>
        </mxCell>
        <mxCell id="SNnAPRE6H2LCFaZrrpsA-137" style="rounded=0;orthogonalLoop=1;jettySize=auto;html=1;" edge="1" parent="1" source="SNnAPRE6H2LCFaZrrpsA-128">
          <mxGeometry relative="1" as="geometry">
            <mxPoint x="840" y="410" as="targetPoint" />
            <Array as="points">
              <mxPoint x="850" y="360" />
              <mxPoint x="850" y="400" />
            </Array>
          </mxGeometry>
        </mxCell>
        <mxCell id="SNnAPRE6H2LCFaZrrpsA-138" style="rounded=0;orthogonalLoop=1;jettySize=auto;html=1;" edge="1" parent="1" source="SNnAPRE6H2LCFaZrrpsA-128">
          <mxGeometry relative="1" as="geometry">
            <mxPoint x="840" y="440" as="targetPoint" />
            <Array as="points">
              <mxPoint x="850" y="360" />
              <mxPoint x="850" y="430" />
            </Array>
          </mxGeometry>
        </mxCell>
        <mxCell id="SNnAPRE6H2LCFaZrrpsA-139" style="rounded=0;orthogonalLoop=1;jettySize=auto;html=1;" edge="1" parent="1" source="SNnAPRE6H2LCFaZrrpsA-128">
          <mxGeometry relative="1" as="geometry">
            <mxPoint x="840" y="470" as="targetPoint" />
            <Array as="points">
              <mxPoint x="850" y="360" />
              <mxPoint x="850" y="460" />
            </Array>
          </mxGeometry>
        </mxCell>
        <mxCell id="SNnAPRE6H2LCFaZrrpsA-140" value="" style="ellipse;whiteSpace=wrap;html=1;aspect=fixed;fillColor=#000000;fontStyle=1" vertex="1" parent="1">
          <mxGeometry x="825" y="385" width="10" height="10" as="geometry" />
        </mxCell>
        <mxCell id="SNnAPRE6H2LCFaZrrpsA-141" value="" style="ellipse;whiteSpace=wrap;html=1;aspect=fixed;fillColor=#000000;fontStyle=1" vertex="1" parent="1">
          <mxGeometry x="825" y="415" width="10" height="10" as="geometry" />
        </mxCell>
        <mxCell id="SNnAPRE6H2LCFaZrrpsA-142" value="" style="ellipse;whiteSpace=wrap;html=1;aspect=fixed;fillColor=#000000;fontStyle=1" vertex="1" parent="1">
          <mxGeometry x="825" y="445" width="10" height="10" as="geometry" />
        </mxCell>
        <mxCell id="SNnAPRE6H2LCFaZrrpsA-143" value="" style="ellipse;whiteSpace=wrap;html=1;aspect=fixed;fillColor=#000000;fontStyle=1" vertex="1" parent="1">
          <mxGeometry x="825" y="475" width="10" height="10" as="geometry" />
        </mxCell>
        <mxCell id="SNnAPRE6H2LCFaZrrpsA-147" value="k&amp;nbsp;" style="rounded=1;whiteSpace=wrap;html=1;fontStyle=1;strokeWidth=2;fontSize=17;fillColor=#f8cecc;strokeColor=#b85450;" vertex="1" parent="1">
          <mxGeometry x="220" y="520" width="20" height="20" as="geometry" />
        </mxCell>
        <mxCell id="SNnAPRE6H2LCFaZrrpsA-148" value="q&amp;nbsp;" style="rounded=1;whiteSpace=wrap;html=1;fontStyle=1;strokeWidth=2;fontSize=17;fillColor=#f8cecc;strokeColor=#b85450;" vertex="1" parent="1">
          <mxGeometry x="240" y="520" width="20" height="20" as="geometry" />
        </mxCell>
        <mxCell id="SNnAPRE6H2LCFaZrrpsA-149" value="v&amp;nbsp;" style="rounded=1;whiteSpace=wrap;html=1;fontStyle=1;strokeWidth=2;fontSize=17;fillColor=#f8cecc;strokeColor=#b85450;" vertex="1" parent="1">
          <mxGeometry x="260" y="520" width="20" height="20" as="geometry" />
        </mxCell>
        <mxCell id="SNnAPRE6H2LCFaZrrpsA-150" style="rounded=0;orthogonalLoop=1;jettySize=auto;html=1;entryX=0.5;entryY=1;entryDx=0;entryDy=0;" edge="1" parent="1" source="SNnAPRE6H2LCFaZrrpsA-153" target="SNnAPRE6H2LCFaZrrpsA-148">
          <mxGeometry relative="1" as="geometry">
            <Array as="points">
              <mxPoint x="250" y="600" />
            </Array>
          </mxGeometry>
        </mxCell>
        <mxCell id="SNnAPRE6H2LCFaZrrpsA-151" style="edgeStyle=orthogonalEdgeStyle;rounded=0;orthogonalLoop=1;jettySize=auto;html=1;exitX=0.5;exitY=0;exitDx=0;exitDy=0;entryX=0.5;entryY=1;entryDx=0;entryDy=0;" edge="1" parent="1" source="SNnAPRE6H2LCFaZrrpsA-153" target="SNnAPRE6H2LCFaZrrpsA-5">
          <mxGeometry relative="1" as="geometry" />
        </mxCell>
        <mxCell id="SNnAPRE6H2LCFaZrrpsA-152" style="rounded=0;orthogonalLoop=1;jettySize=auto;html=1;entryX=0.5;entryY=1;entryDx=0;entryDy=0;" edge="1" parent="1" source="SNnAPRE6H2LCFaZrrpsA-153" target="SNnAPRE6H2LCFaZrrpsA-2">
          <mxGeometry relative="1" as="geometry">
            <Array as="points">
              <mxPoint x="410" y="600" />
            </Array>
          </mxGeometry>
        </mxCell>
        <mxCell id="SNnAPRE6H2LCFaZrrpsA-153" value="a&lt;sub&gt;t=0&lt;/sub&gt;" style="rounded=1;whiteSpace=wrap;html=1;fontStyle=1;strokeWidth=2;fontSize=17;fillColor=#fff2cc;strokeColor=#d6b656;" vertex="1" parent="1">
          <mxGeometry x="290" y="590" width="80" height="20" as="geometry" />
        </mxCell>
        <mxCell id="SNnAPRE6H2LCFaZrrpsA-154" value="a&lt;sub&gt;t=1&lt;/sub&gt;" style="rounded=1;whiteSpace=wrap;html=1;fontStyle=1;strokeWidth=2;fontSize=17;fillColor=#fff2cc;strokeColor=#d6b656;" vertex="1" parent="1">
          <mxGeometry x="480" y="590" width="80" height="20" as="geometry" />
        </mxCell>
        <mxCell id="SNnAPRE6H2LCFaZrrpsA-155" value="a&lt;sub&gt;t=2&lt;/sub&gt;" style="rounded=1;whiteSpace=wrap;html=1;fontStyle=1;strokeWidth=2;fontSize=17;fillColor=#fff2cc;strokeColor=#d6b656;" vertex="1" parent="1">
          <mxGeometry x="640" y="590" width="80" height="20" as="geometry" />
        </mxCell>
        <mxCell id="SNnAPRE6H2LCFaZrrpsA-156" value="a&lt;sub&gt;t=3&lt;/sub&gt;" style="rounded=1;whiteSpace=wrap;html=1;fontStyle=1;strokeWidth=2;fontSize=17;fillColor=#fff2cc;strokeColor=#d6b656;" vertex="1" parent="1">
          <mxGeometry x="800" y="590" width="80" height="20" as="geometry" />
        </mxCell>
        <mxCell id="SNnAPRE6H2LCFaZrrpsA-157" value="W&amp;nbsp;&amp;nbsp;" style="text;html=1;strokeColor=#666666;fillColor=#f5f5f5;align=center;verticalAlign=middle;whiteSpace=wrap;rounded=0;fontStyle=1;fontColor=#333333;" vertex="1" parent="1">
          <mxGeometry x="220" y="560" width="20" height="20" as="geometry" />
        </mxCell>
        <mxCell id="SNnAPRE6H2LCFaZrrpsA-158" value="W&amp;nbsp;&amp;nbsp;" style="text;html=1;strokeColor=#666666;fillColor=#f5f5f5;align=center;verticalAlign=middle;whiteSpace=wrap;rounded=0;fontStyle=1;fontColor=#333333;" vertex="1" parent="1">
          <mxGeometry x="240" y="560" width="20" height="20" as="geometry" />
        </mxCell>
        <mxCell id="SNnAPRE6H2LCFaZrrpsA-159" value="W&amp;nbsp;&amp;nbsp;" style="text;html=1;strokeColor=#666666;fillColor=#f5f5f5;align=center;verticalAlign=middle;whiteSpace=wrap;rounded=0;fontStyle=1;fontColor=#333333;" vertex="1" parent="1">
          <mxGeometry x="260" y="560" width="20" height="20" as="geometry" />
        </mxCell>
        <mxCell id="SNnAPRE6H2LCFaZrrpsA-168" value="" style="endArrow=none;dashed=1;html=1;rounded=0;" edge="1" parent="1">
          <mxGeometry width="50" height="50" relative="1" as="geometry">
            <mxPoint x="290" y="580" as="sourcePoint" />
            <mxPoint x="290" y="510" as="targetPoint" />
          </mxGeometry>
        </mxCell>
        <mxCell id="SNnAPRE6H2LCFaZrrpsA-169" value="" style="endArrow=none;dashed=1;html=1;rounded=0;" edge="1" parent="1">
          <mxGeometry width="50" height="50" relative="1" as="geometry">
            <mxPoint x="370" y="580" as="sourcePoint" />
            <mxPoint x="369.76" y="510" as="targetPoint" />
          </mxGeometry>
        </mxCell>
        <mxCell id="SNnAPRE6H2LCFaZrrpsA-170" value="Head 0" style="text;html=1;strokeColor=none;fillColor=none;align=center;verticalAlign=middle;whiteSpace=wrap;rounded=0;fontStyle=1" vertex="1" parent="1">
          <mxGeometry x="220" y="500" width="60" height="20" as="geometry" />
        </mxCell>
        <mxCell id="SNnAPRE6H2LCFaZrrpsA-171" value="Head 1" style="text;html=1;strokeColor=none;fillColor=none;align=center;verticalAlign=middle;whiteSpace=wrap;rounded=0;fontStyle=1" vertex="1" parent="1">
          <mxGeometry x="300" y="500" width="60" height="20" as="geometry" />
        </mxCell>
        <mxCell id="SNnAPRE6H2LCFaZrrpsA-172" value="Head 2" style="text;html=1;strokeColor=none;fillColor=none;align=center;verticalAlign=middle;whiteSpace=wrap;rounded=0;fontStyle=1" vertex="1" parent="1">
          <mxGeometry x="380" y="500" width="60" height="20" as="geometry" />
        </mxCell>
        <mxCell id="SNnAPRE6H2LCFaZrrpsA-173" value="W&amp;nbsp;&amp;nbsp;" style="text;html=1;strokeColor=#666666;fillColor=#f5f5f5;align=center;verticalAlign=middle;whiteSpace=wrap;rounded=0;fontStyle=1;fontColor=#333333;" vertex="1" parent="1">
          <mxGeometry x="300" y="560" width="20" height="20" as="geometry" />
        </mxCell>
        <mxCell id="SNnAPRE6H2LCFaZrrpsA-174" value="W&amp;nbsp;&amp;nbsp;" style="text;html=1;strokeColor=#666666;fillColor=#f5f5f5;align=center;verticalAlign=middle;whiteSpace=wrap;rounded=0;fontStyle=1;fontColor=#333333;" vertex="1" parent="1">
          <mxGeometry x="320" y="560" width="20" height="20" as="geometry" />
        </mxCell>
        <mxCell id="SNnAPRE6H2LCFaZrrpsA-175" value="W&amp;nbsp;&amp;nbsp;" style="text;html=1;strokeColor=#666666;fillColor=#f5f5f5;align=center;verticalAlign=middle;whiteSpace=wrap;rounded=0;fontStyle=1;fontColor=#333333;" vertex="1" parent="1">
          <mxGeometry x="340" y="560" width="20" height="20" as="geometry" />
        </mxCell>
        <mxCell id="SNnAPRE6H2LCFaZrrpsA-176" value="W&amp;nbsp;&amp;nbsp;" style="text;html=1;strokeColor=#666666;fillColor=#f5f5f5;align=center;verticalAlign=middle;whiteSpace=wrap;rounded=0;fontStyle=1;fontColor=#333333;" vertex="1" parent="1">
          <mxGeometry x="380" y="560" width="20" height="20" as="geometry" />
        </mxCell>
        <mxCell id="SNnAPRE6H2LCFaZrrpsA-177" value="W&amp;nbsp;&amp;nbsp;" style="text;html=1;strokeColor=#666666;fillColor=#f5f5f5;align=center;verticalAlign=middle;whiteSpace=wrap;rounded=0;fontStyle=1;fontColor=#333333;" vertex="1" parent="1">
          <mxGeometry x="400" y="560" width="20" height="20" as="geometry" />
        </mxCell>
        <mxCell id="SNnAPRE6H2LCFaZrrpsA-178" value="W&amp;nbsp;&amp;nbsp;" style="text;html=1;strokeColor=#666666;fillColor=#f5f5f5;align=center;verticalAlign=middle;whiteSpace=wrap;rounded=0;fontStyle=1;fontColor=#333333;" vertex="1" parent="1">
          <mxGeometry x="420" y="560" width="20" height="20" as="geometry" />
        </mxCell>
        <mxCell id="SNnAPRE6H2LCFaZrrpsA-179" value="" style="endArrow=baseDash;startArrow=baseDash;html=1;rounded=0;endFill=0;startFill=0;" edge="1" parent="1">
          <mxGeometry width="50" height="50" relative="1" as="geometry">
            <mxPoint x="930" y="510" as="sourcePoint" />
            <mxPoint x="960" y="480" as="targetPoint" />
          </mxGeometry>
        </mxCell>
        <mxCell id="SNnAPRE6H2LCFaZrrpsA-180" value="Heads" style="text;html=1;strokeColor=none;fillColor=none;align=center;verticalAlign=middle;whiteSpace=wrap;rounded=0;rotation=-45;fontStyle=1" vertex="1" parent="1">
          <mxGeometry x="931.22" y="492.28" width="40.98" height="18.75" as="geometry" />
        </mxCell>
        <mxCell id="SNnAPRE6H2LCFaZrrpsA-181" value="..." style="text;html=1;strokeColor=none;fillColor=none;align=center;verticalAlign=middle;whiteSpace=wrap;rounded=0;fontStyle=1;fontSize=18;" vertex="1" parent="1">
          <mxGeometry x="490" y="540" width="60" height="30" as="geometry" />
        </mxCell>
        <mxCell id="SNnAPRE6H2LCFaZrrpsA-182" value="..." style="text;html=1;strokeColor=none;fillColor=none;align=center;verticalAlign=middle;whiteSpace=wrap;rounded=0;fontStyle=1;fontSize=18;" vertex="1" parent="1">
          <mxGeometry x="650" y="540" width="60" height="30" as="geometry" />
        </mxCell>
        <mxCell id="SNnAPRE6H2LCFaZrrpsA-183" value="..." style="text;html=1;strokeColor=none;fillColor=none;align=center;verticalAlign=middle;whiteSpace=wrap;rounded=0;fontStyle=1;fontSize=18;" vertex="1" parent="1">
          <mxGeometry x="810" y="540" width="60" height="30" as="geometry" />
        </mxCell>
        <mxCell id="SNnAPRE6H2LCFaZrrpsA-184" value="Head 0" style="text;html=1;strokeColor=none;fillColor=none;align=center;verticalAlign=middle;whiteSpace=wrap;rounded=0;fontStyle=1" vertex="1" parent="1">
          <mxGeometry x="280" y="320" width="60" height="10" as="geometry" />
        </mxCell>
        <mxCell id="SNnAPRE6H2LCFaZrrpsA-185" value="Head 1" style="text;html=1;strokeColor=none;fillColor=none;align=center;verticalAlign=middle;whiteSpace=wrap;rounded=0;fontStyle=1" vertex="1" parent="1">
          <mxGeometry x="290" y="310" width="60" height="10" as="geometry" />
        </mxCell>
        <mxCell id="SNnAPRE6H2LCFaZrrpsA-186" value="Head 2" style="text;html=1;strokeColor=none;fillColor=none;align=center;verticalAlign=middle;whiteSpace=wrap;rounded=0;fontStyle=1" vertex="1" parent="1">
          <mxGeometry x="300" y="300" width="60" height="10" as="geometry" />
        </mxCell>
        <mxCell id="SNnAPRE6H2LCFaZrrpsA-187" value="b&lt;sub style=&quot;font-size: 11px;&quot;&gt;t=0&lt;/sub&gt;" style="rounded=1;whiteSpace=wrap;html=1;fontStyle=1;strokeWidth=2;fontSize=11;fillColor=#fff2cc;strokeColor=#d6b656;verticalAlign=middle;" vertex="1" parent="1">
          <mxGeometry x="310" y="150" width="80" height="20" as="geometry" />
        </mxCell>
        <mxCell id="SNnAPRE6H2LCFaZrrpsA-188" value="" style="endArrow=none;html=1;rounded=0;entryX=0.5;entryY=1;entryDx=0;entryDy=0;exitX=0.5;exitY=0;exitDx=0;exitDy=0;endFill=0;" edge="1" parent="1" source="SNnAPRE6H2LCFaZrrpsA-27" target="SNnAPRE6H2LCFaZrrpsA-187">
          <mxGeometry width="50" height="50" relative="1" as="geometry">
            <mxPoint x="320" y="220" as="sourcePoint" />
            <mxPoint x="370" y="170" as="targetPoint" />
            <Array as="points" />
          </mxGeometry>
        </mxCell>
        <mxCell id="SNnAPRE6H2LCFaZrrpsA-189" value="" style="endArrow=none;html=1;rounded=0;entryX=0.5;entryY=1;entryDx=0;entryDy=0;endFill=0;exitX=0.5;exitY=0;exitDx=0;exitDy=0;" edge="1" parent="1" source="SNnAPRE6H2LCFaZrrpsA-11" target="SNnAPRE6H2LCFaZrrpsA-187">
          <mxGeometry width="50" height="50" relative="1" as="geometry">
            <mxPoint x="340" y="190" as="sourcePoint" />
            <mxPoint x="370" y="170" as="targetPoint" />
          </mxGeometry>
        </mxCell>
        <mxCell id="SNnAPRE6H2LCFaZrrpsA-190" value="" style="endArrow=none;html=1;rounded=0;entryX=0.5;entryY=1;entryDx=0;entryDy=0;exitX=0.5;exitY=0;exitDx=0;exitDy=0;endFill=0;" edge="1" parent="1" source="SNnAPRE6H2LCFaZrrpsA-7">
          <mxGeometry width="50" height="50" relative="1" as="geometry">
            <mxPoint x="380" y="200" as="sourcePoint" />
            <mxPoint x="350" y="170" as="targetPoint" />
            <Array as="points" />
          </mxGeometry>
        </mxCell>
        <mxCell id="SNnAPRE6H2LCFaZrrpsA-191" value="b&lt;sub style=&quot;font-size: 11px;&quot;&gt;t=1&lt;/sub&gt;" style="rounded=1;whiteSpace=wrap;html=1;fontStyle=1;strokeWidth=2;fontSize=11;fillColor=#fff2cc;strokeColor=#d6b656;verticalAlign=middle;" vertex="1" parent="1">
          <mxGeometry x="470" y="150" width="80" height="20" as="geometry" />
        </mxCell>
        <mxCell id="SNnAPRE6H2LCFaZrrpsA-192" value="b&lt;sub style=&quot;font-size: 11px;&quot;&gt;t=2&lt;/sub&gt;" style="rounded=1;whiteSpace=wrap;html=1;fontStyle=1;strokeWidth=2;fontSize=11;fillColor=#fff2cc;strokeColor=#d6b656;verticalAlign=middle;" vertex="1" parent="1">
          <mxGeometry x="630" y="150" width="80" height="20" as="geometry" />
        </mxCell>
        <mxCell id="SNnAPRE6H2LCFaZrrpsA-193" value="b&lt;sub style=&quot;font-size: 11px;&quot;&gt;t=3&lt;/sub&gt;" style="rounded=1;whiteSpace=wrap;html=1;fontStyle=1;strokeWidth=2;fontSize=11;fillColor=#fff2cc;strokeColor=#d6b656;verticalAlign=middle;" vertex="1" parent="1">
          <mxGeometry x="790" y="150" width="80" height="20" as="geometry" />
        </mxCell>
        <mxCell id="SNnAPRE6H2LCFaZrrpsA-194" value="FC Layer for Aggregation" style="text;html=1;strokeColor=none;fillColor=none;align=center;verticalAlign=middle;whiteSpace=wrap;rounded=0;fontStyle=1" vertex="1" parent="1">
          <mxGeometry x="220" y="200" width="80" height="40" as="geometry" />
        </mxCell>
        <mxCell id="SNnAPRE6H2LCFaZrrpsA-195" value="0" style="text;html=1;strokeColor=none;fillColor=none;align=center;verticalAlign=middle;whiteSpace=wrap;rounded=0;fontSize=10;" vertex="1" parent="1">
          <mxGeometry x="370" y="330" width="10" height="10" as="geometry" />
        </mxCell>
        <mxCell id="SNnAPRE6H2LCFaZrrpsA-196" value="0" style="text;html=1;strokeColor=none;fillColor=none;align=center;verticalAlign=middle;whiteSpace=wrap;rounded=0;fontSize=10;" vertex="1" parent="1">
          <mxGeometry x="370" y="340" width="10" height="10" as="geometry" />
        </mxCell>
        <mxCell id="SNnAPRE6H2LCFaZrrpsA-197" value="0" style="text;html=1;strokeColor=none;fillColor=none;align=center;verticalAlign=middle;whiteSpace=wrap;rounded=0;fontSize=10;" vertex="1" parent="1">
          <mxGeometry x="530" y="330" width="10" height="10" as="geometry" />
        </mxCell>
        <mxCell id="SNnAPRE6H2LCFaZrrpsA-198" value="1" style="text;html=1;strokeColor=none;fillColor=none;align=center;verticalAlign=middle;whiteSpace=wrap;rounded=0;fontSize=10;" vertex="1" parent="1">
          <mxGeometry x="530" y="340" width="10" height="10" as="geometry" />
        </mxCell>
        <mxCell id="SNnAPRE6H2LCFaZrrpsA-199" value="0" style="text;html=1;strokeColor=none;fillColor=none;align=center;verticalAlign=middle;whiteSpace=wrap;rounded=0;fontSize=10;" vertex="1" parent="1">
          <mxGeometry x="690" y="330" width="10" height="10" as="geometry" />
        </mxCell>
        <mxCell id="SNnAPRE6H2LCFaZrrpsA-200" value="2" style="text;html=1;strokeColor=none;fillColor=none;align=center;verticalAlign=middle;whiteSpace=wrap;rounded=0;fontSize=10;" vertex="1" parent="1">
          <mxGeometry x="690" y="340" width="10" height="10" as="geometry" />
        </mxCell>
        <mxCell id="SNnAPRE6H2LCFaZrrpsA-201" value="0" style="text;html=1;strokeColor=none;fillColor=none;align=center;verticalAlign=middle;whiteSpace=wrap;rounded=0;fontSize=10;" vertex="1" parent="1">
          <mxGeometry x="850" y="330" width="10" height="10" as="geometry" />
        </mxCell>
        <mxCell id="SNnAPRE6H2LCFaZrrpsA-202" value="3" style="text;html=1;strokeColor=none;fillColor=none;align=center;verticalAlign=middle;whiteSpace=wrap;rounded=0;fontSize=10;" vertex="1" parent="1">
          <mxGeometry x="850" y="340" width="10" height="10" as="geometry" />
        </mxCell>
        <mxCell id="SNnAPRE6H2LCFaZrrpsA-203" value="" style="group" vertex="1" connectable="0" parent="1">
          <mxGeometry x="300" y="380" width="140" height="110" as="geometry" />
        </mxCell>
        <mxCell id="SNnAPRE6H2LCFaZrrpsA-204" value="k&amp;nbsp;" style="rounded=1;whiteSpace=wrap;html=1;fontStyle=1;strokeWidth=2;fontSize=17;fillColor=#f8cecc;strokeColor=#b85450;" vertex="1" parent="SNnAPRE6H2LCFaZrrpsA-203">
          <mxGeometry width="20" height="20" as="geometry" />
        </mxCell>
        <mxCell id="SNnAPRE6H2LCFaZrrpsA-205" value="k&amp;nbsp;" style="rounded=1;whiteSpace=wrap;html=1;fontStyle=1;strokeWidth=2;fontSize=17;fillColor=#e1d5e7;strokeColor=#9673a6;" vertex="1" parent="SNnAPRE6H2LCFaZrrpsA-203">
          <mxGeometry y="30" width="20" height="20" as="geometry" />
        </mxCell>
        <mxCell id="SNnAPRE6H2LCFaZrrpsA-206" value="k&amp;nbsp;" style="rounded=1;whiteSpace=wrap;html=1;fontStyle=1;strokeWidth=2;fontSize=17;fillColor=#dae8fc;strokeColor=#6c8ebf;" vertex="1" parent="SNnAPRE6H2LCFaZrrpsA-203">
          <mxGeometry y="60" width="20" height="20" as="geometry" />
        </mxCell>
        <mxCell id="SNnAPRE6H2LCFaZrrpsA-207" value="k&amp;nbsp;" style="rounded=1;whiteSpace=wrap;html=1;fontStyle=1;strokeWidth=2;fontSize=17;fillColor=#d5e8d4;strokeColor=#82b366;" vertex="1" parent="SNnAPRE6H2LCFaZrrpsA-203">
          <mxGeometry y="90" width="20" height="20" as="geometry" />
        </mxCell>
        <mxCell id="SNnAPRE6H2LCFaZrrpsA-208" value="v&amp;nbsp;" style="rounded=1;whiteSpace=wrap;html=1;fontStyle=1;strokeWidth=2;fontSize=17;fillColor=#f8cecc;strokeColor=#b85450;" vertex="1" parent="SNnAPRE6H2LCFaZrrpsA-203">
          <mxGeometry x="120" width="20" height="20" as="geometry" />
        </mxCell>
        <mxCell id="SNnAPRE6H2LCFaZrrpsA-209" value="v&amp;nbsp;" style="rounded=1;whiteSpace=wrap;html=1;fontStyle=1;strokeWidth=2;fontSize=17;fillColor=#e1d5e7;strokeColor=#9673a6;" vertex="1" parent="SNnAPRE6H2LCFaZrrpsA-203">
          <mxGeometry x="120" y="30" width="20" height="20" as="geometry" />
        </mxCell>
        <mxCell id="SNnAPRE6H2LCFaZrrpsA-210" value="v&amp;nbsp;" style="rounded=1;whiteSpace=wrap;html=1;fontStyle=1;strokeWidth=2;fontSize=17;fillColor=#dae8fc;strokeColor=#6c8ebf;" vertex="1" parent="SNnAPRE6H2LCFaZrrpsA-203">
          <mxGeometry x="120" y="60" width="20" height="20" as="geometry" />
        </mxCell>
        <mxCell id="SNnAPRE6H2LCFaZrrpsA-211" value="v&amp;nbsp;" style="rounded=1;whiteSpace=wrap;html=1;fontStyle=1;strokeWidth=2;fontSize=17;fillColor=#d5e8d4;strokeColor=#82b366;" vertex="1" parent="SNnAPRE6H2LCFaZrrpsA-203">
          <mxGeometry x="120" y="90" width="20" height="20" as="geometry" />
        </mxCell>
        <mxCell id="SNnAPRE6H2LCFaZrrpsA-212" value="0" style="text;html=1;strokeColor=none;fillColor=none;align=center;verticalAlign=middle;whiteSpace=wrap;rounded=0;fontSize=10;" vertex="1" parent="SNnAPRE6H2LCFaZrrpsA-203">
          <mxGeometry x="10" width="10" height="10" as="geometry" />
        </mxCell>
        <mxCell id="SNnAPRE6H2LCFaZrrpsA-213" value="0" style="text;html=1;strokeColor=none;fillColor=none;align=center;verticalAlign=middle;whiteSpace=wrap;rounded=0;fontSize=10;" vertex="1" parent="SNnAPRE6H2LCFaZrrpsA-203">
          <mxGeometry x="10" y="10" width="10" height="10" as="geometry" />
        </mxCell>
        <mxCell id="SNnAPRE6H2LCFaZrrpsA-214" value="0" style="text;html=1;strokeColor=none;fillColor=none;align=center;verticalAlign=middle;whiteSpace=wrap;rounded=0;fontSize=10;" vertex="1" parent="SNnAPRE6H2LCFaZrrpsA-203">
          <mxGeometry x="10" y="30" width="10" height="10" as="geometry" />
        </mxCell>
        <mxCell id="SNnAPRE6H2LCFaZrrpsA-215" value="1" style="text;html=1;strokeColor=none;fillColor=none;align=center;verticalAlign=middle;whiteSpace=wrap;rounded=0;fontSize=10;" vertex="1" parent="SNnAPRE6H2LCFaZrrpsA-203">
          <mxGeometry x="10" y="40" width="10" height="10" as="geometry" />
        </mxCell>
        <mxCell id="SNnAPRE6H2LCFaZrrpsA-216" value="0" style="text;html=1;strokeColor=none;fillColor=none;align=center;verticalAlign=middle;whiteSpace=wrap;rounded=0;fontSize=10;" vertex="1" parent="SNnAPRE6H2LCFaZrrpsA-203">
          <mxGeometry x="10" y="60" width="10" height="10" as="geometry" />
        </mxCell>
        <mxCell id="SNnAPRE6H2LCFaZrrpsA-217" value="2" style="text;html=1;strokeColor=none;fillColor=none;align=center;verticalAlign=middle;whiteSpace=wrap;rounded=0;fontSize=10;" vertex="1" parent="SNnAPRE6H2LCFaZrrpsA-203">
          <mxGeometry x="10" y="70" width="10" height="10" as="geometry" />
        </mxCell>
        <mxCell id="SNnAPRE6H2LCFaZrrpsA-218" value="3" style="text;html=1;strokeColor=none;fillColor=none;align=center;verticalAlign=middle;whiteSpace=wrap;rounded=0;fontSize=10;" vertex="1" parent="SNnAPRE6H2LCFaZrrpsA-203">
          <mxGeometry x="10" y="100" width="10" height="10" as="geometry" />
        </mxCell>
        <mxCell id="SNnAPRE6H2LCFaZrrpsA-219" value="0" style="text;html=1;strokeColor=none;fillColor=none;align=center;verticalAlign=middle;whiteSpace=wrap;rounded=0;fontSize=10;" vertex="1" parent="SNnAPRE6H2LCFaZrrpsA-203">
          <mxGeometry x="10" y="90" width="10" height="10" as="geometry" />
        </mxCell>
        <mxCell id="SNnAPRE6H2LCFaZrrpsA-220" value="0" style="text;html=1;strokeColor=none;fillColor=none;align=center;verticalAlign=middle;whiteSpace=wrap;rounded=0;fontSize=10;" vertex="1" parent="SNnAPRE6H2LCFaZrrpsA-203">
          <mxGeometry x="130" width="10" height="10" as="geometry" />
        </mxCell>
        <mxCell id="SNnAPRE6H2LCFaZrrpsA-221" value="0" style="text;html=1;strokeColor=none;fillColor=none;align=center;verticalAlign=middle;whiteSpace=wrap;rounded=0;fontSize=10;" vertex="1" parent="SNnAPRE6H2LCFaZrrpsA-203">
          <mxGeometry x="130" y="10" width="10" height="10" as="geometry" />
        </mxCell>
        <mxCell id="SNnAPRE6H2LCFaZrrpsA-222" value="0" style="text;html=1;strokeColor=none;fillColor=none;align=center;verticalAlign=middle;whiteSpace=wrap;rounded=0;fontSize=10;" vertex="1" parent="SNnAPRE6H2LCFaZrrpsA-203">
          <mxGeometry x="130" y="30" width="10" height="10" as="geometry" />
        </mxCell>
        <mxCell id="SNnAPRE6H2LCFaZrrpsA-223" value="1" style="text;html=1;strokeColor=none;fillColor=none;align=center;verticalAlign=middle;whiteSpace=wrap;rounded=0;fontSize=10;" vertex="1" parent="SNnAPRE6H2LCFaZrrpsA-203">
          <mxGeometry x="130" y="40" width="10" height="10" as="geometry" />
        </mxCell>
        <mxCell id="SNnAPRE6H2LCFaZrrpsA-224" value="0" style="text;html=1;strokeColor=none;fillColor=none;align=center;verticalAlign=middle;whiteSpace=wrap;rounded=0;fontSize=10;" vertex="1" parent="SNnAPRE6H2LCFaZrrpsA-203">
          <mxGeometry x="130" y="60" width="10" height="10" as="geometry" />
        </mxCell>
        <mxCell id="SNnAPRE6H2LCFaZrrpsA-225" value="2" style="text;html=1;strokeColor=none;fillColor=none;align=center;verticalAlign=middle;whiteSpace=wrap;rounded=0;fontSize=10;" vertex="1" parent="SNnAPRE6H2LCFaZrrpsA-203">
          <mxGeometry x="130" y="70" width="10" height="10" as="geometry" />
        </mxCell>
        <mxCell id="SNnAPRE6H2LCFaZrrpsA-226" value="3" style="text;html=1;strokeColor=none;fillColor=none;align=center;verticalAlign=middle;whiteSpace=wrap;rounded=0;fontSize=10;" vertex="1" parent="SNnAPRE6H2LCFaZrrpsA-203">
          <mxGeometry x="130" y="100" width="10" height="10" as="geometry" />
        </mxCell>
        <mxCell id="SNnAPRE6H2LCFaZrrpsA-227" value="0" style="text;html=1;strokeColor=none;fillColor=none;align=center;verticalAlign=middle;whiteSpace=wrap;rounded=0;fontSize=10;" vertex="1" parent="SNnAPRE6H2LCFaZrrpsA-203">
          <mxGeometry x="130" y="90" width="10" height="10" as="geometry" />
        </mxCell>
        <mxCell id="SNnAPRE6H2LCFaZrrpsA-228" value="" style="group" vertex="1" connectable="0" parent="1">
          <mxGeometry x="460" y="380" width="140" height="110" as="geometry" />
        </mxCell>
        <mxCell id="SNnAPRE6H2LCFaZrrpsA-229" value="k&amp;nbsp;" style="rounded=1;whiteSpace=wrap;html=1;fontStyle=1;strokeWidth=2;fontSize=17;fillColor=#f8cecc;strokeColor=#b85450;" vertex="1" parent="SNnAPRE6H2LCFaZrrpsA-228">
          <mxGeometry width="20" height="20" as="geometry" />
        </mxCell>
        <mxCell id="SNnAPRE6H2LCFaZrrpsA-230" value="k&amp;nbsp;" style="rounded=1;whiteSpace=wrap;html=1;fontStyle=1;strokeWidth=2;fontSize=17;fillColor=#e1d5e7;strokeColor=#9673a6;" vertex="1" parent="SNnAPRE6H2LCFaZrrpsA-228">
          <mxGeometry y="30" width="20" height="20" as="geometry" />
        </mxCell>
        <mxCell id="SNnAPRE6H2LCFaZrrpsA-231" value="k&amp;nbsp;" style="rounded=1;whiteSpace=wrap;html=1;fontStyle=1;strokeWidth=2;fontSize=17;fillColor=#dae8fc;strokeColor=#6c8ebf;" vertex="1" parent="SNnAPRE6H2LCFaZrrpsA-228">
          <mxGeometry y="60" width="20" height="20" as="geometry" />
        </mxCell>
        <mxCell id="SNnAPRE6H2LCFaZrrpsA-232" value="k&amp;nbsp;" style="rounded=1;whiteSpace=wrap;html=1;fontStyle=1;strokeWidth=2;fontSize=17;fillColor=#d5e8d4;strokeColor=#82b366;" vertex="1" parent="SNnAPRE6H2LCFaZrrpsA-228">
          <mxGeometry y="90" width="20" height="20" as="geometry" />
        </mxCell>
        <mxCell id="SNnAPRE6H2LCFaZrrpsA-233" value="v&amp;nbsp;" style="rounded=1;whiteSpace=wrap;html=1;fontStyle=1;strokeWidth=2;fontSize=17;fillColor=#f8cecc;strokeColor=#b85450;" vertex="1" parent="SNnAPRE6H2LCFaZrrpsA-228">
          <mxGeometry x="120" width="20" height="20" as="geometry" />
        </mxCell>
        <mxCell id="SNnAPRE6H2LCFaZrrpsA-234" value="v&amp;nbsp;" style="rounded=1;whiteSpace=wrap;html=1;fontStyle=1;strokeWidth=2;fontSize=17;fillColor=#e1d5e7;strokeColor=#9673a6;" vertex="1" parent="SNnAPRE6H2LCFaZrrpsA-228">
          <mxGeometry x="120" y="30" width="20" height="20" as="geometry" />
        </mxCell>
        <mxCell id="SNnAPRE6H2LCFaZrrpsA-235" value="v&amp;nbsp;" style="rounded=1;whiteSpace=wrap;html=1;fontStyle=1;strokeWidth=2;fontSize=17;fillColor=#dae8fc;strokeColor=#6c8ebf;" vertex="1" parent="SNnAPRE6H2LCFaZrrpsA-228">
          <mxGeometry x="120" y="60" width="20" height="20" as="geometry" />
        </mxCell>
        <mxCell id="SNnAPRE6H2LCFaZrrpsA-236" value="v&amp;nbsp;" style="rounded=1;whiteSpace=wrap;html=1;fontStyle=1;strokeWidth=2;fontSize=17;fillColor=#d5e8d4;strokeColor=#82b366;" vertex="1" parent="SNnAPRE6H2LCFaZrrpsA-228">
          <mxGeometry x="120" y="90" width="20" height="20" as="geometry" />
        </mxCell>
        <mxCell id="SNnAPRE6H2LCFaZrrpsA-237" value="0" style="text;html=1;strokeColor=none;fillColor=none;align=center;verticalAlign=middle;whiteSpace=wrap;rounded=0;fontSize=10;" vertex="1" parent="SNnAPRE6H2LCFaZrrpsA-228">
          <mxGeometry x="10" width="10" height="10" as="geometry" />
        </mxCell>
        <mxCell id="SNnAPRE6H2LCFaZrrpsA-238" value="0" style="text;html=1;strokeColor=none;fillColor=none;align=center;verticalAlign=middle;whiteSpace=wrap;rounded=0;fontSize=10;" vertex="1" parent="SNnAPRE6H2LCFaZrrpsA-228">
          <mxGeometry x="10" y="10" width="10" height="10" as="geometry" />
        </mxCell>
        <mxCell id="SNnAPRE6H2LCFaZrrpsA-239" value="0" style="text;html=1;strokeColor=none;fillColor=none;align=center;verticalAlign=middle;whiteSpace=wrap;rounded=0;fontSize=10;" vertex="1" parent="SNnAPRE6H2LCFaZrrpsA-228">
          <mxGeometry x="10" y="30" width="10" height="10" as="geometry" />
        </mxCell>
        <mxCell id="SNnAPRE6H2LCFaZrrpsA-240" value="1" style="text;html=1;strokeColor=none;fillColor=none;align=center;verticalAlign=middle;whiteSpace=wrap;rounded=0;fontSize=10;" vertex="1" parent="SNnAPRE6H2LCFaZrrpsA-228">
          <mxGeometry x="10" y="40" width="10" height="10" as="geometry" />
        </mxCell>
        <mxCell id="SNnAPRE6H2LCFaZrrpsA-241" value="0" style="text;html=1;strokeColor=none;fillColor=none;align=center;verticalAlign=middle;whiteSpace=wrap;rounded=0;fontSize=10;" vertex="1" parent="SNnAPRE6H2LCFaZrrpsA-228">
          <mxGeometry x="10" y="60" width="10" height="10" as="geometry" />
        </mxCell>
        <mxCell id="SNnAPRE6H2LCFaZrrpsA-242" value="2" style="text;html=1;strokeColor=none;fillColor=none;align=center;verticalAlign=middle;whiteSpace=wrap;rounded=0;fontSize=10;" vertex="1" parent="SNnAPRE6H2LCFaZrrpsA-228">
          <mxGeometry x="10" y="70" width="10" height="10" as="geometry" />
        </mxCell>
        <mxCell id="SNnAPRE6H2LCFaZrrpsA-243" value="3" style="text;html=1;strokeColor=none;fillColor=none;align=center;verticalAlign=middle;whiteSpace=wrap;rounded=0;fontSize=10;" vertex="1" parent="SNnAPRE6H2LCFaZrrpsA-228">
          <mxGeometry x="10" y="100" width="10" height="10" as="geometry" />
        </mxCell>
        <mxCell id="SNnAPRE6H2LCFaZrrpsA-244" value="0" style="text;html=1;strokeColor=none;fillColor=none;align=center;verticalAlign=middle;whiteSpace=wrap;rounded=0;fontSize=10;" vertex="1" parent="SNnAPRE6H2LCFaZrrpsA-228">
          <mxGeometry x="10" y="90" width="10" height="10" as="geometry" />
        </mxCell>
        <mxCell id="SNnAPRE6H2LCFaZrrpsA-245" value="0" style="text;html=1;strokeColor=none;fillColor=none;align=center;verticalAlign=middle;whiteSpace=wrap;rounded=0;fontSize=10;" vertex="1" parent="SNnAPRE6H2LCFaZrrpsA-228">
          <mxGeometry x="130" width="10" height="10" as="geometry" />
        </mxCell>
        <mxCell id="SNnAPRE6H2LCFaZrrpsA-246" value="0" style="text;html=1;strokeColor=none;fillColor=none;align=center;verticalAlign=middle;whiteSpace=wrap;rounded=0;fontSize=10;" vertex="1" parent="SNnAPRE6H2LCFaZrrpsA-228">
          <mxGeometry x="130" y="10" width="10" height="10" as="geometry" />
        </mxCell>
        <mxCell id="SNnAPRE6H2LCFaZrrpsA-247" value="0" style="text;html=1;strokeColor=none;fillColor=none;align=center;verticalAlign=middle;whiteSpace=wrap;rounded=0;fontSize=10;" vertex="1" parent="SNnAPRE6H2LCFaZrrpsA-228">
          <mxGeometry x="130" y="30" width="10" height="10" as="geometry" />
        </mxCell>
        <mxCell id="SNnAPRE6H2LCFaZrrpsA-248" value="1" style="text;html=1;strokeColor=none;fillColor=none;align=center;verticalAlign=middle;whiteSpace=wrap;rounded=0;fontSize=10;" vertex="1" parent="SNnAPRE6H2LCFaZrrpsA-228">
          <mxGeometry x="130" y="40" width="10" height="10" as="geometry" />
        </mxCell>
        <mxCell id="SNnAPRE6H2LCFaZrrpsA-249" value="0" style="text;html=1;strokeColor=none;fillColor=none;align=center;verticalAlign=middle;whiteSpace=wrap;rounded=0;fontSize=10;" vertex="1" parent="SNnAPRE6H2LCFaZrrpsA-228">
          <mxGeometry x="130" y="60" width="10" height="10" as="geometry" />
        </mxCell>
        <mxCell id="SNnAPRE6H2LCFaZrrpsA-250" value="2" style="text;html=1;strokeColor=none;fillColor=none;align=center;verticalAlign=middle;whiteSpace=wrap;rounded=0;fontSize=10;" vertex="1" parent="SNnAPRE6H2LCFaZrrpsA-228">
          <mxGeometry x="130" y="70" width="10" height="10" as="geometry" />
        </mxCell>
        <mxCell id="SNnAPRE6H2LCFaZrrpsA-251" value="3" style="text;html=1;strokeColor=none;fillColor=none;align=center;verticalAlign=middle;whiteSpace=wrap;rounded=0;fontSize=10;" vertex="1" parent="SNnAPRE6H2LCFaZrrpsA-228">
          <mxGeometry x="130" y="100" width="10" height="10" as="geometry" />
        </mxCell>
        <mxCell id="SNnAPRE6H2LCFaZrrpsA-252" value="0" style="text;html=1;strokeColor=none;fillColor=none;align=center;verticalAlign=middle;whiteSpace=wrap;rounded=0;fontSize=10;" vertex="1" parent="SNnAPRE6H2LCFaZrrpsA-228">
          <mxGeometry x="130" y="90" width="10" height="10" as="geometry" />
        </mxCell>
        <mxCell id="SNnAPRE6H2LCFaZrrpsA-253" value="" style="group" vertex="1" connectable="0" parent="1">
          <mxGeometry x="620" y="380" width="140" height="110" as="geometry" />
        </mxCell>
        <mxCell id="SNnAPRE6H2LCFaZrrpsA-254" value="k&amp;nbsp;" style="rounded=1;whiteSpace=wrap;html=1;fontStyle=1;strokeWidth=2;fontSize=17;fillColor=#f8cecc;strokeColor=#b85450;" vertex="1" parent="SNnAPRE6H2LCFaZrrpsA-253">
          <mxGeometry width="20" height="20" as="geometry" />
        </mxCell>
        <mxCell id="SNnAPRE6H2LCFaZrrpsA-255" value="k&amp;nbsp;" style="rounded=1;whiteSpace=wrap;html=1;fontStyle=1;strokeWidth=2;fontSize=17;fillColor=#e1d5e7;strokeColor=#9673a6;" vertex="1" parent="SNnAPRE6H2LCFaZrrpsA-253">
          <mxGeometry y="30" width="20" height="20" as="geometry" />
        </mxCell>
        <mxCell id="SNnAPRE6H2LCFaZrrpsA-256" value="k&amp;nbsp;" style="rounded=1;whiteSpace=wrap;html=1;fontStyle=1;strokeWidth=2;fontSize=17;fillColor=#dae8fc;strokeColor=#6c8ebf;" vertex="1" parent="SNnAPRE6H2LCFaZrrpsA-253">
          <mxGeometry y="60" width="20" height="20" as="geometry" />
        </mxCell>
        <mxCell id="SNnAPRE6H2LCFaZrrpsA-257" value="k&amp;nbsp;" style="rounded=1;whiteSpace=wrap;html=1;fontStyle=1;strokeWidth=2;fontSize=17;fillColor=#d5e8d4;strokeColor=#82b366;" vertex="1" parent="SNnAPRE6H2LCFaZrrpsA-253">
          <mxGeometry y="90" width="20" height="20" as="geometry" />
        </mxCell>
        <mxCell id="SNnAPRE6H2LCFaZrrpsA-258" value="v&amp;nbsp;" style="rounded=1;whiteSpace=wrap;html=1;fontStyle=1;strokeWidth=2;fontSize=17;fillColor=#f8cecc;strokeColor=#b85450;" vertex="1" parent="SNnAPRE6H2LCFaZrrpsA-253">
          <mxGeometry x="120" width="20" height="20" as="geometry" />
        </mxCell>
        <mxCell id="SNnAPRE6H2LCFaZrrpsA-259" value="v&amp;nbsp;" style="rounded=1;whiteSpace=wrap;html=1;fontStyle=1;strokeWidth=2;fontSize=17;fillColor=#e1d5e7;strokeColor=#9673a6;" vertex="1" parent="SNnAPRE6H2LCFaZrrpsA-253">
          <mxGeometry x="120" y="30" width="20" height="20" as="geometry" />
        </mxCell>
        <mxCell id="SNnAPRE6H2LCFaZrrpsA-260" value="v&amp;nbsp;" style="rounded=1;whiteSpace=wrap;html=1;fontStyle=1;strokeWidth=2;fontSize=17;fillColor=#dae8fc;strokeColor=#6c8ebf;" vertex="1" parent="SNnAPRE6H2LCFaZrrpsA-253">
          <mxGeometry x="120" y="60" width="20" height="20" as="geometry" />
        </mxCell>
        <mxCell id="SNnAPRE6H2LCFaZrrpsA-261" value="v&amp;nbsp;" style="rounded=1;whiteSpace=wrap;html=1;fontStyle=1;strokeWidth=2;fontSize=17;fillColor=#d5e8d4;strokeColor=#82b366;" vertex="1" parent="SNnAPRE6H2LCFaZrrpsA-253">
          <mxGeometry x="120" y="90" width="20" height="20" as="geometry" />
        </mxCell>
        <mxCell id="SNnAPRE6H2LCFaZrrpsA-262" value="0" style="text;html=1;strokeColor=none;fillColor=none;align=center;verticalAlign=middle;whiteSpace=wrap;rounded=0;fontSize=10;" vertex="1" parent="SNnAPRE6H2LCFaZrrpsA-253">
          <mxGeometry x="10" width="10" height="10" as="geometry" />
        </mxCell>
        <mxCell id="SNnAPRE6H2LCFaZrrpsA-263" value="0" style="text;html=1;strokeColor=none;fillColor=none;align=center;verticalAlign=middle;whiteSpace=wrap;rounded=0;fontSize=10;" vertex="1" parent="SNnAPRE6H2LCFaZrrpsA-253">
          <mxGeometry x="10" y="10" width="10" height="10" as="geometry" />
        </mxCell>
        <mxCell id="SNnAPRE6H2LCFaZrrpsA-264" value="0" style="text;html=1;strokeColor=none;fillColor=none;align=center;verticalAlign=middle;whiteSpace=wrap;rounded=0;fontSize=10;" vertex="1" parent="SNnAPRE6H2LCFaZrrpsA-253">
          <mxGeometry x="10" y="30" width="10" height="10" as="geometry" />
        </mxCell>
        <mxCell id="SNnAPRE6H2LCFaZrrpsA-265" value="1" style="text;html=1;strokeColor=none;fillColor=none;align=center;verticalAlign=middle;whiteSpace=wrap;rounded=0;fontSize=10;" vertex="1" parent="SNnAPRE6H2LCFaZrrpsA-253">
          <mxGeometry x="10" y="40" width="10" height="10" as="geometry" />
        </mxCell>
        <mxCell id="SNnAPRE6H2LCFaZrrpsA-266" value="0" style="text;html=1;strokeColor=none;fillColor=none;align=center;verticalAlign=middle;whiteSpace=wrap;rounded=0;fontSize=10;" vertex="1" parent="SNnAPRE6H2LCFaZrrpsA-253">
          <mxGeometry x="10" y="60" width="10" height="10" as="geometry" />
        </mxCell>
        <mxCell id="SNnAPRE6H2LCFaZrrpsA-267" value="2" style="text;html=1;strokeColor=none;fillColor=none;align=center;verticalAlign=middle;whiteSpace=wrap;rounded=0;fontSize=10;" vertex="1" parent="SNnAPRE6H2LCFaZrrpsA-253">
          <mxGeometry x="10" y="70" width="10" height="10" as="geometry" />
        </mxCell>
        <mxCell id="SNnAPRE6H2LCFaZrrpsA-268" value="3" style="text;html=1;strokeColor=none;fillColor=none;align=center;verticalAlign=middle;whiteSpace=wrap;rounded=0;fontSize=10;" vertex="1" parent="SNnAPRE6H2LCFaZrrpsA-253">
          <mxGeometry x="10" y="100" width="10" height="10" as="geometry" />
        </mxCell>
        <mxCell id="SNnAPRE6H2LCFaZrrpsA-269" value="0" style="text;html=1;strokeColor=none;fillColor=none;align=center;verticalAlign=middle;whiteSpace=wrap;rounded=0;fontSize=10;" vertex="1" parent="SNnAPRE6H2LCFaZrrpsA-253">
          <mxGeometry x="10" y="90" width="10" height="10" as="geometry" />
        </mxCell>
        <mxCell id="SNnAPRE6H2LCFaZrrpsA-270" value="0" style="text;html=1;strokeColor=none;fillColor=none;align=center;verticalAlign=middle;whiteSpace=wrap;rounded=0;fontSize=10;" vertex="1" parent="SNnAPRE6H2LCFaZrrpsA-253">
          <mxGeometry x="130" width="10" height="10" as="geometry" />
        </mxCell>
        <mxCell id="SNnAPRE6H2LCFaZrrpsA-271" value="0" style="text;html=1;strokeColor=none;fillColor=none;align=center;verticalAlign=middle;whiteSpace=wrap;rounded=0;fontSize=10;" vertex="1" parent="SNnAPRE6H2LCFaZrrpsA-253">
          <mxGeometry x="130" y="10" width="10" height="10" as="geometry" />
        </mxCell>
        <mxCell id="SNnAPRE6H2LCFaZrrpsA-272" value="0" style="text;html=1;strokeColor=none;fillColor=none;align=center;verticalAlign=middle;whiteSpace=wrap;rounded=0;fontSize=10;" vertex="1" parent="SNnAPRE6H2LCFaZrrpsA-253">
          <mxGeometry x="130" y="30" width="10" height="10" as="geometry" />
        </mxCell>
        <mxCell id="SNnAPRE6H2LCFaZrrpsA-273" value="1" style="text;html=1;strokeColor=none;fillColor=none;align=center;verticalAlign=middle;whiteSpace=wrap;rounded=0;fontSize=10;" vertex="1" parent="SNnAPRE6H2LCFaZrrpsA-253">
          <mxGeometry x="130" y="40" width="10" height="10" as="geometry" />
        </mxCell>
        <mxCell id="SNnAPRE6H2LCFaZrrpsA-274" value="0" style="text;html=1;strokeColor=none;fillColor=none;align=center;verticalAlign=middle;whiteSpace=wrap;rounded=0;fontSize=10;" vertex="1" parent="SNnAPRE6H2LCFaZrrpsA-253">
          <mxGeometry x="130" y="60" width="10" height="10" as="geometry" />
        </mxCell>
        <mxCell id="SNnAPRE6H2LCFaZrrpsA-275" value="2" style="text;html=1;strokeColor=none;fillColor=none;align=center;verticalAlign=middle;whiteSpace=wrap;rounded=0;fontSize=10;" vertex="1" parent="SNnAPRE6H2LCFaZrrpsA-253">
          <mxGeometry x="130" y="70" width="10" height="10" as="geometry" />
        </mxCell>
        <mxCell id="SNnAPRE6H2LCFaZrrpsA-276" value="3" style="text;html=1;strokeColor=none;fillColor=none;align=center;verticalAlign=middle;whiteSpace=wrap;rounded=0;fontSize=10;" vertex="1" parent="SNnAPRE6H2LCFaZrrpsA-253">
          <mxGeometry x="130" y="100" width="10" height="10" as="geometry" />
        </mxCell>
        <mxCell id="SNnAPRE6H2LCFaZrrpsA-277" value="0" style="text;html=1;strokeColor=none;fillColor=none;align=center;verticalAlign=middle;whiteSpace=wrap;rounded=0;fontSize=10;" vertex="1" parent="SNnAPRE6H2LCFaZrrpsA-253">
          <mxGeometry x="130" y="90" width="10" height="10" as="geometry" />
        </mxCell>
        <mxCell id="SNnAPRE6H2LCFaZrrpsA-278" value="" style="group" vertex="1" connectable="0" parent="1">
          <mxGeometry x="780" y="380" width="140" height="110" as="geometry" />
        </mxCell>
        <mxCell id="SNnAPRE6H2LCFaZrrpsA-279" value="k&amp;nbsp;" style="rounded=1;whiteSpace=wrap;html=1;fontStyle=1;strokeWidth=2;fontSize=17;fillColor=#f8cecc;strokeColor=#b85450;" vertex="1" parent="SNnAPRE6H2LCFaZrrpsA-278">
          <mxGeometry width="20" height="20" as="geometry" />
        </mxCell>
        <mxCell id="SNnAPRE6H2LCFaZrrpsA-280" value="k&amp;nbsp;" style="rounded=1;whiteSpace=wrap;html=1;fontStyle=1;strokeWidth=2;fontSize=17;fillColor=#e1d5e7;strokeColor=#9673a6;" vertex="1" parent="SNnAPRE6H2LCFaZrrpsA-278">
          <mxGeometry y="30" width="20" height="20" as="geometry" />
        </mxCell>
        <mxCell id="SNnAPRE6H2LCFaZrrpsA-281" value="k&amp;nbsp;" style="rounded=1;whiteSpace=wrap;html=1;fontStyle=1;strokeWidth=2;fontSize=17;fillColor=#dae8fc;strokeColor=#6c8ebf;" vertex="1" parent="SNnAPRE6H2LCFaZrrpsA-278">
          <mxGeometry y="60" width="20" height="20" as="geometry" />
        </mxCell>
        <mxCell id="SNnAPRE6H2LCFaZrrpsA-282" value="k&amp;nbsp;" style="rounded=1;whiteSpace=wrap;html=1;fontStyle=1;strokeWidth=2;fontSize=17;fillColor=#d5e8d4;strokeColor=#82b366;" vertex="1" parent="SNnAPRE6H2LCFaZrrpsA-278">
          <mxGeometry y="90" width="20" height="20" as="geometry" />
        </mxCell>
        <mxCell id="SNnAPRE6H2LCFaZrrpsA-283" value="v&amp;nbsp;" style="rounded=1;whiteSpace=wrap;html=1;fontStyle=1;strokeWidth=2;fontSize=17;fillColor=#f8cecc;strokeColor=#b85450;" vertex="1" parent="SNnAPRE6H2LCFaZrrpsA-278">
          <mxGeometry x="120" width="20" height="20" as="geometry" />
        </mxCell>
        <mxCell id="SNnAPRE6H2LCFaZrrpsA-284" value="v&amp;nbsp;" style="rounded=1;whiteSpace=wrap;html=1;fontStyle=1;strokeWidth=2;fontSize=17;fillColor=#e1d5e7;strokeColor=#9673a6;" vertex="1" parent="SNnAPRE6H2LCFaZrrpsA-278">
          <mxGeometry x="120" y="30" width="20" height="20" as="geometry" />
        </mxCell>
        <mxCell id="SNnAPRE6H2LCFaZrrpsA-285" value="v&amp;nbsp;" style="rounded=1;whiteSpace=wrap;html=1;fontStyle=1;strokeWidth=2;fontSize=17;fillColor=#dae8fc;strokeColor=#6c8ebf;" vertex="1" parent="SNnAPRE6H2LCFaZrrpsA-278">
          <mxGeometry x="120" y="60" width="20" height="20" as="geometry" />
        </mxCell>
        <mxCell id="SNnAPRE6H2LCFaZrrpsA-286" value="v&amp;nbsp;" style="rounded=1;whiteSpace=wrap;html=1;fontStyle=1;strokeWidth=2;fontSize=17;fillColor=#d5e8d4;strokeColor=#82b366;" vertex="1" parent="SNnAPRE6H2LCFaZrrpsA-278">
          <mxGeometry x="120" y="90" width="20" height="20" as="geometry" />
        </mxCell>
        <mxCell id="SNnAPRE6H2LCFaZrrpsA-287" value="0" style="text;html=1;strokeColor=none;fillColor=none;align=center;verticalAlign=middle;whiteSpace=wrap;rounded=0;fontSize=10;" vertex="1" parent="SNnAPRE6H2LCFaZrrpsA-278">
          <mxGeometry x="10" width="10" height="10" as="geometry" />
        </mxCell>
        <mxCell id="SNnAPRE6H2LCFaZrrpsA-288" value="0" style="text;html=1;strokeColor=none;fillColor=none;align=center;verticalAlign=middle;whiteSpace=wrap;rounded=0;fontSize=10;" vertex="1" parent="SNnAPRE6H2LCFaZrrpsA-278">
          <mxGeometry x="10" y="10" width="10" height="10" as="geometry" />
        </mxCell>
        <mxCell id="SNnAPRE6H2LCFaZrrpsA-289" value="0" style="text;html=1;strokeColor=none;fillColor=none;align=center;verticalAlign=middle;whiteSpace=wrap;rounded=0;fontSize=10;" vertex="1" parent="SNnAPRE6H2LCFaZrrpsA-278">
          <mxGeometry x="10" y="30" width="10" height="10" as="geometry" />
        </mxCell>
        <mxCell id="SNnAPRE6H2LCFaZrrpsA-290" value="1" style="text;html=1;strokeColor=none;fillColor=none;align=center;verticalAlign=middle;whiteSpace=wrap;rounded=0;fontSize=10;" vertex="1" parent="SNnAPRE6H2LCFaZrrpsA-278">
          <mxGeometry x="10" y="40" width="10" height="10" as="geometry" />
        </mxCell>
        <mxCell id="SNnAPRE6H2LCFaZrrpsA-291" value="0" style="text;html=1;strokeColor=none;fillColor=none;align=center;verticalAlign=middle;whiteSpace=wrap;rounded=0;fontSize=10;" vertex="1" parent="SNnAPRE6H2LCFaZrrpsA-278">
          <mxGeometry x="10" y="60" width="10" height="10" as="geometry" />
        </mxCell>
        <mxCell id="SNnAPRE6H2LCFaZrrpsA-292" value="2" style="text;html=1;strokeColor=none;fillColor=none;align=center;verticalAlign=middle;whiteSpace=wrap;rounded=0;fontSize=10;" vertex="1" parent="SNnAPRE6H2LCFaZrrpsA-278">
          <mxGeometry x="10" y="70" width="10" height="10" as="geometry" />
        </mxCell>
        <mxCell id="SNnAPRE6H2LCFaZrrpsA-293" value="3" style="text;html=1;strokeColor=none;fillColor=none;align=center;verticalAlign=middle;whiteSpace=wrap;rounded=0;fontSize=10;" vertex="1" parent="SNnAPRE6H2LCFaZrrpsA-278">
          <mxGeometry x="10" y="100" width="10" height="10" as="geometry" />
        </mxCell>
        <mxCell id="SNnAPRE6H2LCFaZrrpsA-294" value="0" style="text;html=1;strokeColor=none;fillColor=none;align=center;verticalAlign=middle;whiteSpace=wrap;rounded=0;fontSize=10;" vertex="1" parent="SNnAPRE6H2LCFaZrrpsA-278">
          <mxGeometry x="10" y="90" width="10" height="10" as="geometry" />
        </mxCell>
        <mxCell id="SNnAPRE6H2LCFaZrrpsA-295" value="0" style="text;html=1;strokeColor=none;fillColor=none;align=center;verticalAlign=middle;whiteSpace=wrap;rounded=0;fontSize=10;" vertex="1" parent="SNnAPRE6H2LCFaZrrpsA-278">
          <mxGeometry x="130" width="10" height="10" as="geometry" />
        </mxCell>
        <mxCell id="SNnAPRE6H2LCFaZrrpsA-296" value="0" style="text;html=1;strokeColor=none;fillColor=none;align=center;verticalAlign=middle;whiteSpace=wrap;rounded=0;fontSize=10;" vertex="1" parent="SNnAPRE6H2LCFaZrrpsA-278">
          <mxGeometry x="130" y="10" width="10" height="10" as="geometry" />
        </mxCell>
        <mxCell id="SNnAPRE6H2LCFaZrrpsA-297" value="0" style="text;html=1;strokeColor=none;fillColor=none;align=center;verticalAlign=middle;whiteSpace=wrap;rounded=0;fontSize=10;" vertex="1" parent="SNnAPRE6H2LCFaZrrpsA-278">
          <mxGeometry x="130" y="30" width="10" height="10" as="geometry" />
        </mxCell>
        <mxCell id="SNnAPRE6H2LCFaZrrpsA-298" value="1" style="text;html=1;strokeColor=none;fillColor=none;align=center;verticalAlign=middle;whiteSpace=wrap;rounded=0;fontSize=10;" vertex="1" parent="SNnAPRE6H2LCFaZrrpsA-278">
          <mxGeometry x="130" y="40" width="10" height="10" as="geometry" />
        </mxCell>
        <mxCell id="SNnAPRE6H2LCFaZrrpsA-299" value="0" style="text;html=1;strokeColor=none;fillColor=none;align=center;verticalAlign=middle;whiteSpace=wrap;rounded=0;fontSize=10;" vertex="1" parent="SNnAPRE6H2LCFaZrrpsA-278">
          <mxGeometry x="130" y="60" width="10" height="10" as="geometry" />
        </mxCell>
        <mxCell id="SNnAPRE6H2LCFaZrrpsA-300" value="2" style="text;html=1;strokeColor=none;fillColor=none;align=center;verticalAlign=middle;whiteSpace=wrap;rounded=0;fontSize=10;" vertex="1" parent="SNnAPRE6H2LCFaZrrpsA-278">
          <mxGeometry x="130" y="70" width="10" height="10" as="geometry" />
        </mxCell>
        <mxCell id="SNnAPRE6H2LCFaZrrpsA-301" value="3" style="text;html=1;strokeColor=none;fillColor=none;align=center;verticalAlign=middle;whiteSpace=wrap;rounded=0;fontSize=10;" vertex="1" parent="SNnAPRE6H2LCFaZrrpsA-278">
          <mxGeometry x="130" y="100" width="10" height="10" as="geometry" />
        </mxCell>
        <mxCell id="SNnAPRE6H2LCFaZrrpsA-302" value="0" style="text;html=1;strokeColor=none;fillColor=none;align=center;verticalAlign=middle;whiteSpace=wrap;rounded=0;fontSize=10;" vertex="1" parent="SNnAPRE6H2LCFaZrrpsA-278">
          <mxGeometry x="130" y="90" width="10" height="10" as="geometry" />
        </mxCell>
        <mxCell id="SNnAPRE6H2LCFaZrrpsA-303" value="t=0" style="text;html=1;strokeColor=none;fillColor=none;align=left;verticalAlign=middle;whiteSpace=wrap;rounded=0;" vertex="1" parent="1">
          <mxGeometry x="330" y="230" width="30" height="10" as="geometry" />
        </mxCell>
        <mxCell id="SNnAPRE6H2LCFaZrrpsA-304" value="h=0" style="text;html=1;strokeColor=none;fillColor=none;align=left;verticalAlign=middle;whiteSpace=wrap;rounded=0;" vertex="1" parent="1">
          <mxGeometry x="330" y="220" width="30" height="10" as="geometry" />
        </mxCell>
        <mxCell id="SNnAPRE6H2LCFaZrrpsA-305" value="h=1" style="text;html=1;strokeColor=none;fillColor=none;align=left;verticalAlign=middle;whiteSpace=wrap;rounded=0;" vertex="1" parent="1">
          <mxGeometry x="340" y="210" width="30" height="10" as="geometry" />
        </mxCell>
        <mxCell id="SNnAPRE6H2LCFaZrrpsA-306" value="h=2" style="text;html=1;strokeColor=none;fillColor=none;align=left;verticalAlign=middle;whiteSpace=wrap;rounded=0;" vertex="1" parent="1">
          <mxGeometry x="350" y="200" width="30" height="10" as="geometry" />
        </mxCell>
        <mxCell id="SNnAPRE6H2LCFaZrrpsA-307" value="h=2" style="text;html=1;strokeColor=none;fillColor=none;align=left;verticalAlign=middle;whiteSpace=wrap;rounded=0;" vertex="1" parent="1">
          <mxGeometry x="510" y="200" width="30" height="10" as="geometry" />
        </mxCell>
        <mxCell id="SNnAPRE6H2LCFaZrrpsA-308" value="h=1" style="text;html=1;strokeColor=none;fillColor=none;align=left;verticalAlign=middle;whiteSpace=wrap;rounded=0;" vertex="1" parent="1">
          <mxGeometry x="500" y="210" width="30" height="10" as="geometry" />
        </mxCell>
        <mxCell id="SNnAPRE6H2LCFaZrrpsA-309" value="h=0" style="text;html=1;strokeColor=none;fillColor=none;align=left;verticalAlign=middle;whiteSpace=wrap;rounded=0;" vertex="1" parent="1">
          <mxGeometry x="490" y="220" width="30" height="10" as="geometry" />
        </mxCell>
        <mxCell id="SNnAPRE6H2LCFaZrrpsA-310" value="t=1" style="text;html=1;strokeColor=none;fillColor=none;align=left;verticalAlign=middle;whiteSpace=wrap;rounded=0;" vertex="1" parent="1">
          <mxGeometry x="490" y="230" width="30" height="10" as="geometry" />
        </mxCell>
        <mxCell id="SNnAPRE6H2LCFaZrrpsA-311" value="h=2" style="text;html=1;strokeColor=none;fillColor=none;align=left;verticalAlign=middle;whiteSpace=wrap;rounded=0;" vertex="1" parent="1">
          <mxGeometry x="670" y="200" width="30" height="10" as="geometry" />
        </mxCell>
        <mxCell id="SNnAPRE6H2LCFaZrrpsA-312" value="h=1" style="text;html=1;strokeColor=none;fillColor=none;align=left;verticalAlign=middle;whiteSpace=wrap;rounded=0;" vertex="1" parent="1">
          <mxGeometry x="660" y="210" width="30" height="10" as="geometry" />
        </mxCell>
        <mxCell id="SNnAPRE6H2LCFaZrrpsA-313" value="h=0" style="text;html=1;strokeColor=none;fillColor=none;align=left;verticalAlign=middle;whiteSpace=wrap;rounded=0;" vertex="1" parent="1">
          <mxGeometry x="650" y="220" width="30" height="10" as="geometry" />
        </mxCell>
        <mxCell id="SNnAPRE6H2LCFaZrrpsA-314" value="t=2" style="text;html=1;strokeColor=none;fillColor=none;align=left;verticalAlign=middle;whiteSpace=wrap;rounded=0;" vertex="1" parent="1">
          <mxGeometry x="650" y="230" width="30" height="10" as="geometry" />
        </mxCell>
        <mxCell id="SNnAPRE6H2LCFaZrrpsA-315" value="h=2" style="text;html=1;strokeColor=none;fillColor=none;align=left;verticalAlign=middle;whiteSpace=wrap;rounded=0;" vertex="1" parent="1">
          <mxGeometry x="830" y="200" width="30" height="10" as="geometry" />
        </mxCell>
        <mxCell id="SNnAPRE6H2LCFaZrrpsA-316" value="h=1" style="text;html=1;strokeColor=none;fillColor=none;align=left;verticalAlign=middle;whiteSpace=wrap;rounded=0;" vertex="1" parent="1">
          <mxGeometry x="820" y="210" width="30" height="10" as="geometry" />
        </mxCell>
        <mxCell id="SNnAPRE6H2LCFaZrrpsA-317" value="h=0" style="text;html=1;strokeColor=none;fillColor=none;align=left;verticalAlign=middle;whiteSpace=wrap;rounded=0;" vertex="1" parent="1">
          <mxGeometry x="810" y="220" width="30" height="10" as="geometry" />
        </mxCell>
        <mxCell id="SNnAPRE6H2LCFaZrrpsA-318" value="t=3" style="text;html=1;strokeColor=none;fillColor=none;align=left;verticalAlign=middle;whiteSpace=wrap;rounded=0;" vertex="1" parent="1">
          <mxGeometry x="810" y="230" width="30" height="10" as="geometry" />
        </mxCell>
        <mxCell id="SNnAPRE6H2LCFaZrrpsA-319" value="" style="endArrow=none;html=1;rounded=0;entryX=0.5;entryY=1;entryDx=0;entryDy=0;exitX=0.5;exitY=0;exitDx=0;exitDy=0;endFill=0;" edge="1" parent="1">
          <mxGeometry width="50" height="50" relative="1" as="geometry">
            <mxPoint x="500" y="220" as="sourcePoint" />
            <mxPoint x="510" y="170" as="targetPoint" />
            <Array as="points" />
          </mxGeometry>
        </mxCell>
        <mxCell id="SNnAPRE6H2LCFaZrrpsA-320" value="" style="endArrow=none;html=1;rounded=0;entryX=0.5;entryY=1;entryDx=0;entryDy=0;endFill=0;exitX=0.5;exitY=0;exitDx=0;exitDy=0;" edge="1" parent="1">
          <mxGeometry width="50" height="50" relative="1" as="geometry">
            <mxPoint x="510" y="210" as="sourcePoint" />
            <mxPoint x="510" y="170" as="targetPoint" />
          </mxGeometry>
        </mxCell>
        <mxCell id="SNnAPRE6H2LCFaZrrpsA-321" value="" style="endArrow=none;html=1;rounded=0;entryX=0.5;entryY=1;entryDx=0;entryDy=0;exitX=0.5;exitY=0;exitDx=0;exitDy=0;endFill=0;" edge="1" parent="1">
          <mxGeometry width="50" height="50" relative="1" as="geometry">
            <mxPoint x="520" y="200" as="sourcePoint" />
            <mxPoint x="510" y="170" as="targetPoint" />
            <Array as="points" />
          </mxGeometry>
        </mxCell>
        <mxCell id="SNnAPRE6H2LCFaZrrpsA-322" value="" style="endArrow=none;html=1;rounded=0;entryX=0.5;entryY=1;entryDx=0;entryDy=0;exitX=0.5;exitY=0;exitDx=0;exitDy=0;endFill=0;" edge="1" parent="1">
          <mxGeometry width="50" height="50" relative="1" as="geometry">
            <mxPoint x="660" y="220" as="sourcePoint" />
            <mxPoint x="670" y="170" as="targetPoint" />
            <Array as="points" />
          </mxGeometry>
        </mxCell>
        <mxCell id="SNnAPRE6H2LCFaZrrpsA-323" value="" style="endArrow=none;html=1;rounded=0;entryX=0.5;entryY=1;entryDx=0;entryDy=0;endFill=0;exitX=0.5;exitY=0;exitDx=0;exitDy=0;" edge="1" parent="1">
          <mxGeometry width="50" height="50" relative="1" as="geometry">
            <mxPoint x="670" y="210" as="sourcePoint" />
            <mxPoint x="670" y="170" as="targetPoint" />
          </mxGeometry>
        </mxCell>
        <mxCell id="SNnAPRE6H2LCFaZrrpsA-324" value="" style="endArrow=none;html=1;rounded=0;entryX=0.5;entryY=1;entryDx=0;entryDy=0;exitX=0.5;exitY=0;exitDx=0;exitDy=0;endFill=0;" edge="1" parent="1">
          <mxGeometry width="50" height="50" relative="1" as="geometry">
            <mxPoint x="680" y="200" as="sourcePoint" />
            <mxPoint x="670" y="170" as="targetPoint" />
            <Array as="points" />
          </mxGeometry>
        </mxCell>
        <mxCell id="SNnAPRE6H2LCFaZrrpsA-325" value="" style="endArrow=none;html=1;rounded=0;entryX=0.5;entryY=1;entryDx=0;entryDy=0;exitX=0.5;exitY=0;exitDx=0;exitDy=0;endFill=0;" edge="1" parent="1">
          <mxGeometry width="50" height="50" relative="1" as="geometry">
            <mxPoint x="820" y="220" as="sourcePoint" />
            <mxPoint x="830" y="170" as="targetPoint" />
            <Array as="points" />
          </mxGeometry>
        </mxCell>
        <mxCell id="SNnAPRE6H2LCFaZrrpsA-326" value="" style="endArrow=none;html=1;rounded=0;entryX=0.5;entryY=1;entryDx=0;entryDy=0;endFill=0;exitX=0.5;exitY=0;exitDx=0;exitDy=0;" edge="1" parent="1">
          <mxGeometry width="50" height="50" relative="1" as="geometry">
            <mxPoint x="830" y="210" as="sourcePoint" />
            <mxPoint x="830" y="170" as="targetPoint" />
          </mxGeometry>
        </mxCell>
        <mxCell id="SNnAPRE6H2LCFaZrrpsA-327" value="" style="endArrow=none;html=1;rounded=0;entryX=0.5;entryY=1;entryDx=0;entryDy=0;exitX=0.5;exitY=0;exitDx=0;exitDy=0;endFill=0;" edge="1" parent="1">
          <mxGeometry width="50" height="50" relative="1" as="geometry">
            <mxPoint x="840" y="200" as="sourcePoint" />
            <mxPoint x="830" y="170" as="targetPoint" />
            <Array as="points" />
          </mxGeometry>
        </mxCell>
        <mxCell id="SNnAPRE6H2LCFaZrrpsA-328" value="0" style="text;html=1;strokeColor=none;fillColor=none;align=center;verticalAlign=middle;whiteSpace=wrap;rounded=0;fontSize=10;" vertex="1" parent="1">
          <mxGeometry x="230" y="520" width="10" height="10" as="geometry" />
        </mxCell>
        <mxCell id="SNnAPRE6H2LCFaZrrpsA-329" value="0" style="text;html=1;strokeColor=none;fillColor=none;align=center;verticalAlign=middle;whiteSpace=wrap;rounded=0;fontSize=10;" vertex="1" parent="1">
          <mxGeometry x="230" y="530" width="10" height="10" as="geometry" />
        </mxCell>
        <mxCell id="SNnAPRE6H2LCFaZrrpsA-330" value="0" style="text;html=1;strokeColor=none;fillColor=none;align=center;verticalAlign=middle;whiteSpace=wrap;rounded=0;fontSize=10;" vertex="1" parent="1">
          <mxGeometry x="250" y="520" width="10" height="10" as="geometry" />
        </mxCell>
        <mxCell id="SNnAPRE6H2LCFaZrrpsA-331" value="0" style="text;html=1;strokeColor=none;fillColor=none;align=center;verticalAlign=middle;whiteSpace=wrap;rounded=0;fontSize=10;" vertex="1" parent="1">
          <mxGeometry x="250" y="530" width="10" height="10" as="geometry" />
        </mxCell>
        <mxCell id="SNnAPRE6H2LCFaZrrpsA-332" value="0" style="text;html=1;strokeColor=none;fillColor=none;align=center;verticalAlign=middle;whiteSpace=wrap;rounded=0;fontSize=10;" vertex="1" parent="1">
          <mxGeometry x="270" y="520" width="10" height="10" as="geometry" />
        </mxCell>
        <mxCell id="SNnAPRE6H2LCFaZrrpsA-333" value="0" style="text;html=1;strokeColor=none;fillColor=none;align=center;verticalAlign=middle;whiteSpace=wrap;rounded=0;fontSize=10;" vertex="1" parent="1">
          <mxGeometry x="270" y="530" width="10" height="10" as="geometry" />
        </mxCell>
        <mxCell id="SNnAPRE6H2LCFaZrrpsA-334" value="1" style="text;html=1;strokeColor=none;fillColor=none;align=center;verticalAlign=middle;whiteSpace=wrap;rounded=0;fontSize=10;" vertex="1" parent="1">
          <mxGeometry x="310" y="520" width="10" height="10" as="geometry" />
        </mxCell>
        <mxCell id="SNnAPRE6H2LCFaZrrpsA-335" value="0" style="text;html=1;strokeColor=none;fillColor=none;align=center;verticalAlign=middle;whiteSpace=wrap;rounded=0;fontSize=10;" vertex="1" parent="1">
          <mxGeometry x="310" y="530" width="10" height="10" as="geometry" />
        </mxCell>
        <mxCell id="SNnAPRE6H2LCFaZrrpsA-336" value="0" style="text;html=1;strokeColor=none;fillColor=none;align=center;verticalAlign=middle;whiteSpace=wrap;rounded=0;fontSize=10;" vertex="1" parent="1">
          <mxGeometry x="330" y="530" width="10" height="10" as="geometry" />
        </mxCell>
        <mxCell id="SNnAPRE6H2LCFaZrrpsA-337" value="1" style="text;html=1;strokeColor=none;fillColor=none;align=center;verticalAlign=middle;whiteSpace=wrap;rounded=0;fontSize=10;" vertex="1" parent="1">
          <mxGeometry x="330" y="520" width="10" height="10" as="geometry" />
        </mxCell>
        <mxCell id="SNnAPRE6H2LCFaZrrpsA-338" value="0" style="text;html=1;strokeColor=none;fillColor=none;align=center;verticalAlign=middle;whiteSpace=wrap;rounded=0;fontSize=10;" vertex="1" parent="1">
          <mxGeometry x="350" y="530" width="10" height="10" as="geometry" />
        </mxCell>
        <mxCell id="SNnAPRE6H2LCFaZrrpsA-339" value="1" style="text;html=1;strokeColor=none;fillColor=none;align=center;verticalAlign=middle;whiteSpace=wrap;rounded=0;fontSize=10;" vertex="1" parent="1">
          <mxGeometry x="350" y="520" width="10" height="10" as="geometry" />
        </mxCell>
        <mxCell id="SNnAPRE6H2LCFaZrrpsA-340" value="0" style="text;html=1;strokeColor=none;fillColor=none;align=center;verticalAlign=middle;whiteSpace=wrap;rounded=0;fontSize=10;" vertex="1" parent="1">
          <mxGeometry x="390" y="530" width="10" height="10" as="geometry" />
        </mxCell>
        <mxCell id="SNnAPRE6H2LCFaZrrpsA-341" value="2" style="text;html=1;strokeColor=none;fillColor=none;align=center;verticalAlign=middle;whiteSpace=wrap;rounded=0;fontSize=10;" vertex="1" parent="1">
          <mxGeometry x="390" y="520" width="10" height="10" as="geometry" />
        </mxCell>
        <mxCell id="SNnAPRE6H2LCFaZrrpsA-342" value="2" style="text;html=1;strokeColor=none;fillColor=none;align=center;verticalAlign=middle;whiteSpace=wrap;rounded=0;fontSize=10;" vertex="1" parent="1">
          <mxGeometry x="410" y="520" width="10" height="10" as="geometry" />
        </mxCell>
        <mxCell id="SNnAPRE6H2LCFaZrrpsA-343" value="0" style="text;html=1;strokeColor=none;fillColor=none;align=center;verticalAlign=middle;whiteSpace=wrap;rounded=0;fontSize=10;" vertex="1" parent="1">
          <mxGeometry x="410" y="530" width="10" height="10" as="geometry" />
        </mxCell>
        <mxCell id="SNnAPRE6H2LCFaZrrpsA-344" value="2" style="text;html=1;strokeColor=none;fillColor=none;align=center;verticalAlign=middle;whiteSpace=wrap;rounded=0;fontSize=10;" vertex="1" parent="1">
          <mxGeometry x="430" y="520" width="10" height="10" as="geometry" />
        </mxCell>
        <mxCell id="SNnAPRE6H2LCFaZrrpsA-345" value="0" style="text;html=1;strokeColor=none;fillColor=none;align=center;verticalAlign=middle;whiteSpace=wrap;rounded=0;fontSize=10;" vertex="1" parent="1">
          <mxGeometry x="430" y="530" width="10" height="10" as="geometry" />
        </mxCell>
        <mxCell id="SNnAPRE6H2LCFaZrrpsA-346" value="0" style="text;html=1;strokeColor=none;fillColor=none;align=center;verticalAlign=middle;whiteSpace=wrap;rounded=0;fontSize=10;" vertex="1" parent="1">
          <mxGeometry x="230" y="560" width="10" height="10" as="geometry" />
        </mxCell>
        <mxCell id="SNnAPRE6H2LCFaZrrpsA-347" value="k" style="text;html=1;strokeColor=none;fillColor=none;align=center;verticalAlign=middle;whiteSpace=wrap;rounded=0;fontSize=10;" vertex="1" parent="1">
          <mxGeometry x="230" y="570" width="10" height="10" as="geometry" />
        </mxCell>
        <mxCell id="SNnAPRE6H2LCFaZrrpsA-348" value="0" style="text;html=1;strokeColor=none;fillColor=none;align=center;verticalAlign=middle;whiteSpace=wrap;rounded=0;fontSize=10;" vertex="1" parent="1">
          <mxGeometry x="250" y="560" width="10" height="10" as="geometry" />
        </mxCell>
        <mxCell id="SNnAPRE6H2LCFaZrrpsA-349" value="q" style="text;html=1;strokeColor=none;fillColor=none;align=center;verticalAlign=middle;whiteSpace=wrap;rounded=0;fontSize=10;" vertex="1" parent="1">
          <mxGeometry x="250" y="570" width="10" height="10" as="geometry" />
        </mxCell>
        <mxCell id="SNnAPRE6H2LCFaZrrpsA-350" value="0" style="text;html=1;strokeColor=none;fillColor=none;align=center;verticalAlign=middle;whiteSpace=wrap;rounded=0;fontSize=10;" vertex="1" parent="1">
          <mxGeometry x="270" y="560" width="10" height="10" as="geometry" />
        </mxCell>
        <mxCell id="SNnAPRE6H2LCFaZrrpsA-351" value="v" style="text;html=1;strokeColor=none;fillColor=none;align=center;verticalAlign=middle;whiteSpace=wrap;rounded=0;fontSize=10;" vertex="1" parent="1">
          <mxGeometry x="270" y="570" width="10" height="10" as="geometry" />
        </mxCell>
        <mxCell id="SNnAPRE6H2LCFaZrrpsA-352" value="1" style="text;html=1;strokeColor=none;fillColor=none;align=center;verticalAlign=middle;whiteSpace=wrap;rounded=0;fontSize=10;" vertex="1" parent="1">
          <mxGeometry x="350" y="560" width="10" height="10" as="geometry" />
        </mxCell>
        <mxCell id="SNnAPRE6H2LCFaZrrpsA-353" value="v" style="text;html=1;strokeColor=none;fillColor=none;align=center;verticalAlign=middle;whiteSpace=wrap;rounded=0;fontSize=10;" vertex="1" parent="1">
          <mxGeometry x="350" y="570" width="10" height="10" as="geometry" />
        </mxCell>
        <mxCell id="SNnAPRE6H2LCFaZrrpsA-354" value="1" style="text;html=1;strokeColor=none;fillColor=none;align=center;verticalAlign=middle;whiteSpace=wrap;rounded=0;fontSize=10;" vertex="1" parent="1">
          <mxGeometry x="330" y="560" width="10" height="10" as="geometry" />
        </mxCell>
        <mxCell id="SNnAPRE6H2LCFaZrrpsA-355" value="q" style="text;html=1;strokeColor=none;fillColor=none;align=center;verticalAlign=middle;whiteSpace=wrap;rounded=0;fontSize=10;" vertex="1" parent="1">
          <mxGeometry x="330" y="570" width="10" height="10" as="geometry" />
        </mxCell>
        <mxCell id="SNnAPRE6H2LCFaZrrpsA-356" value="1" style="text;html=1;strokeColor=none;fillColor=none;align=center;verticalAlign=middle;whiteSpace=wrap;rounded=0;fontSize=10;" vertex="1" parent="1">
          <mxGeometry x="310" y="560" width="10" height="10" as="geometry" />
        </mxCell>
        <mxCell id="SNnAPRE6H2LCFaZrrpsA-357" value="k" style="text;html=1;strokeColor=none;fillColor=none;align=center;verticalAlign=middle;whiteSpace=wrap;rounded=0;fontSize=10;" vertex="1" parent="1">
          <mxGeometry x="310" y="570" width="10" height="10" as="geometry" />
        </mxCell>
        <mxCell id="SNnAPRE6H2LCFaZrrpsA-358" value="2" style="text;html=1;strokeColor=none;fillColor=none;align=center;verticalAlign=middle;whiteSpace=wrap;rounded=0;fontSize=10;" vertex="1" parent="1">
          <mxGeometry x="430" y="560" width="10" height="10" as="geometry" />
        </mxCell>
        <mxCell id="SNnAPRE6H2LCFaZrrpsA-359" value="v" style="text;html=1;strokeColor=none;fillColor=none;align=center;verticalAlign=middle;whiteSpace=wrap;rounded=0;fontSize=10;" vertex="1" parent="1">
          <mxGeometry x="430" y="570" width="10" height="10" as="geometry" />
        </mxCell>
        <mxCell id="SNnAPRE6H2LCFaZrrpsA-360" value="2" style="text;html=1;strokeColor=none;fillColor=none;align=center;verticalAlign=middle;whiteSpace=wrap;rounded=0;fontSize=10;" vertex="1" parent="1">
          <mxGeometry x="410" y="560" width="10" height="10" as="geometry" />
        </mxCell>
        <mxCell id="SNnAPRE6H2LCFaZrrpsA-361" value="q" style="text;html=1;strokeColor=none;fillColor=none;align=center;verticalAlign=middle;whiteSpace=wrap;rounded=0;fontSize=10;" vertex="1" parent="1">
          <mxGeometry x="410" y="570" width="10" height="10" as="geometry" />
        </mxCell>
        <mxCell id="SNnAPRE6H2LCFaZrrpsA-362" value="2" style="text;html=1;strokeColor=none;fillColor=none;align=center;verticalAlign=middle;whiteSpace=wrap;rounded=0;fontSize=10;" vertex="1" parent="1">
          <mxGeometry x="390" y="560" width="10" height="10" as="geometry" />
        </mxCell>
        <mxCell id="SNnAPRE6H2LCFaZrrpsA-363" value="k" style="text;html=1;strokeColor=none;fillColor=none;align=center;verticalAlign=middle;whiteSpace=wrap;rounded=0;fontSize=10;" vertex="1" parent="1">
          <mxGeometry x="390" y="570" width="10" height="10" as="geometry" />
        </mxCell>
        <mxCell id="SNnAPRE6H2LCFaZrrpsA-364" style="rounded=0;orthogonalLoop=1;jettySize=auto;html=1;" edge="1" parent="1" source="SNnAPRE6H2LCFaZrrpsA-21" target="SNnAPRE6H2LCFaZrrpsA-27">
          <mxGeometry relative="1" as="geometry">
            <Array as="points">
              <mxPoint x="410" y="280" />
              <mxPoint x="340" y="280" />
            </Array>
          </mxGeometry>
        </mxCell>
        <mxCell id="SNnAPRE6H2LCFaZrrpsA-365" value="&amp;nbsp; &amp;nbsp;Layer Norm&amp;nbsp; &amp;nbsp;" style="shape=parallelogram;perimeter=parallelogramPerimeter;whiteSpace=wrap;html=1;fixedSize=1;container=0;fillColor=#f5f5f5;fontColor=#333333;strokeColor=#666666;strokeWidth=2;fontStyle=1" vertex="1" parent="1">
          <mxGeometry x="355" y="255" width="60" height="30" as="geometry" />
        </mxCell>
        <mxCell id="SNnAPRE6H2LCFaZrrpsA-384" style="rounded=0;orthogonalLoop=1;jettySize=auto;html=1;" edge="1" parent="1">
          <mxGeometry relative="1" as="geometry">
            <Array as="points">
              <mxPoint x="890" y="280" />
              <mxPoint x="820" y="280" />
            </Array>
            <mxPoint x="890" y="330" as="sourcePoint" />
            <mxPoint x="820" y="240" as="targetPoint" />
          </mxGeometry>
        </mxCell>
        <mxCell id="SNnAPRE6H2LCFaZrrpsA-385" value="&amp;nbsp; &amp;nbsp;Layer Norm&amp;nbsp; &amp;nbsp;" style="shape=parallelogram;perimeter=parallelogramPerimeter;whiteSpace=wrap;html=1;fixedSize=1;fillColor=#f5f5f5;fontColor=#333333;strokeColor=#666666;strokeWidth=2;fontStyle=1" vertex="1" parent="1">
          <mxGeometry x="835" y="255" width="60" height="30" as="geometry" />
        </mxCell>
        <mxCell id="SNnAPRE6H2LCFaZrrpsA-379" style="rounded=0;orthogonalLoop=1;jettySize=auto;html=1;" edge="1" parent="1">
          <mxGeometry relative="1" as="geometry">
            <Array as="points">
              <mxPoint x="730" y="280" />
              <mxPoint x="660" y="280" />
            </Array>
            <mxPoint x="730" y="330" as="sourcePoint" />
            <mxPoint x="660" y="240" as="targetPoint" />
          </mxGeometry>
        </mxCell>
        <mxCell id="SNnAPRE6H2LCFaZrrpsA-380" value="&amp;nbsp; &amp;nbsp;Layer Norm&amp;nbsp; &amp;nbsp;" style="shape=parallelogram;perimeter=parallelogramPerimeter;whiteSpace=wrap;html=1;fixedSize=1;fillColor=#f5f5f5;fontColor=#333333;strokeColor=#666666;strokeWidth=2;fontStyle=1" vertex="1" parent="1">
          <mxGeometry x="675" y="255" width="60" height="30" as="geometry" />
        </mxCell>
        <mxCell id="SNnAPRE6H2LCFaZrrpsA-398" value="&amp;nbsp; &amp;nbsp;Layer Norm&amp;nbsp; &amp;nbsp;" style="shape=parallelogram;perimeter=parallelogramPerimeter;whiteSpace=wrap;html=1;fixedSize=1;container=0;fillColor=#f5f5f5;fontColor=#333333;strokeColor=#666666;strokeWidth=2;fontStyle=1" vertex="1" parent="1">
          <mxGeometry x="320" y="100" width="60" height="30" as="geometry" />
        </mxCell>
        <mxCell id="SNnAPRE6H2LCFaZrrpsA-400" value="" style="endArrow=classic;html=1;rounded=0;" edge="1" parent="1">
          <mxGeometry width="50" height="50" relative="1" as="geometry">
            <mxPoint x="510" y="150" as="sourcePoint" />
            <mxPoint x="510" y="80" as="targetPoint" />
          </mxGeometry>
        </mxCell>
        <mxCell id="SNnAPRE6H2LCFaZrrpsA-401" value="&amp;nbsp; &amp;nbsp;Layer Norm&amp;nbsp; &amp;nbsp;" style="shape=parallelogram;perimeter=parallelogramPerimeter;whiteSpace=wrap;html=1;fixedSize=1;container=0;fillColor=#f5f5f5;fontColor=#333333;strokeColor=#666666;strokeWidth=2;fontStyle=1" vertex="1" parent="1">
          <mxGeometry x="480" y="100" width="60" height="30" as="geometry" />
        </mxCell>
        <mxCell id="SNnAPRE6H2LCFaZrrpsA-402" value="" style="endArrow=classic;html=1;rounded=0;" edge="1" parent="1">
          <mxGeometry width="50" height="50" relative="1" as="geometry">
            <mxPoint x="670" y="150" as="sourcePoint" />
            <mxPoint x="670" y="80" as="targetPoint" />
          </mxGeometry>
        </mxCell>
        <mxCell id="SNnAPRE6H2LCFaZrrpsA-403" value="&amp;nbsp; &amp;nbsp;Layer Norm&amp;nbsp; &amp;nbsp;" style="shape=parallelogram;perimeter=parallelogramPerimeter;whiteSpace=wrap;html=1;fixedSize=1;container=0;fillColor=#f5f5f5;fontColor=#333333;strokeColor=#666666;strokeWidth=2;fontStyle=1" vertex="1" parent="1">
          <mxGeometry x="640" y="100" width="60" height="30" as="geometry" />
        </mxCell>
        <mxCell id="SNnAPRE6H2LCFaZrrpsA-404" value="" style="endArrow=classic;html=1;rounded=0;" edge="1" parent="1">
          <mxGeometry width="50" height="50" relative="1" as="geometry">
            <mxPoint x="830" y="150" as="sourcePoint" />
            <mxPoint x="830" y="80" as="targetPoint" />
          </mxGeometry>
        </mxCell>
        <mxCell id="SNnAPRE6H2LCFaZrrpsA-405" value="&amp;nbsp; &amp;nbsp;Layer Norm&amp;nbsp; &amp;nbsp;" style="shape=parallelogram;perimeter=parallelogramPerimeter;whiteSpace=wrap;html=1;fixedSize=1;container=0;fillColor=#f5f5f5;fontColor=#333333;strokeColor=#666666;strokeWidth=2;fontStyle=1" vertex="1" parent="1">
          <mxGeometry x="800" y="100" width="60" height="30" as="geometry" />
        </mxCell>
        <mxCell id="SNnAPRE6H2LCFaZrrpsA-406" value="" style="endArrow=classic;html=1;curved=1;" edge="1" parent="1" source="SNnAPRE6H2LCFaZrrpsA-153" target="SNnAPRE6H2LCFaZrrpsA-414">
          <mxGeometry width="50" height="50" relative="1" as="geometry">
            <mxPoint x="250" y="600" as="sourcePoint" />
            <mxPoint x="340" y="280" as="targetPoint" />
            <Array as="points">
              <mxPoint x="160" y="600" />
              <mxPoint x="160" y="270" />
            </Array>
          </mxGeometry>
        </mxCell>
        <mxCell id="SNnAPRE6H2LCFaZrrpsA-407" value="" style="endArrow=classic;html=1;curved=1;" edge="1" parent="1" source="SNnAPRE6H2LCFaZrrpsA-153" target="SNnAPRE6H2LCFaZrrpsA-413">
          <mxGeometry width="50" height="50" relative="1" as="geometry">
            <mxPoint x="250" y="600" as="sourcePoint" />
            <mxPoint x="350" y="270" as="targetPoint" />
            <Array as="points">
              <mxPoint x="160" y="600" />
              <mxPoint x="160" y="270" />
            </Array>
          </mxGeometry>
        </mxCell>
        <mxCell id="SNnAPRE6H2LCFaZrrpsA-408" value="" style="endArrow=classic;html=1;curved=1;" edge="1" parent="1" source="SNnAPRE6H2LCFaZrrpsA-153" target="SNnAPRE6H2LCFaZrrpsA-412">
          <mxGeometry width="50" height="50" relative="1" as="geometry">
            <mxPoint x="250" y="600" as="sourcePoint" />
            <mxPoint x="360" y="260" as="targetPoint" />
            <Array as="points">
              <mxPoint x="160" y="600" />
              <mxPoint x="160" y="270" />
            </Array>
          </mxGeometry>
        </mxCell>
        <mxCell id="SNnAPRE6H2LCFaZrrpsA-410" value="Residue Connections" style="text;html=1;strokeColor=none;fillColor=none;align=center;verticalAlign=middle;whiteSpace=wrap;rounded=0;horizontal=0;fontStyle=1" vertex="1" parent="1">
          <mxGeometry x="180" y="400" width="40" height="80" as="geometry" />
        </mxCell>
        <mxCell id="SNnAPRE6H2LCFaZrrpsA-412" value="+" style="ellipse;whiteSpace=wrap;html=1;aspect=fixed;fontStyle=1" vertex="1" parent="1">
          <mxGeometry x="425" y="285" width="10" height="10" as="geometry" />
        </mxCell>
        <mxCell id="SNnAPRE6H2LCFaZrrpsA-413" value="+" style="ellipse;whiteSpace=wrap;html=1;aspect=fixed;fontStyle=1" vertex="1" parent="1">
          <mxGeometry x="415" y="295" width="10" height="10" as="geometry" />
        </mxCell>
        <mxCell id="SNnAPRE6H2LCFaZrrpsA-414" value="+" style="ellipse;whiteSpace=wrap;html=1;aspect=fixed;fontStyle=1" vertex="1" parent="1">
          <mxGeometry x="405" y="305" width="10" height="10" as="geometry" />
        </mxCell>
        <mxCell id="SNnAPRE6H2LCFaZrrpsA-415" value="+" style="ellipse;whiteSpace=wrap;html=1;aspect=fixed;fontStyle=1" vertex="1" parent="1">
          <mxGeometry x="345" y="135" width="10" height="10" as="geometry" />
        </mxCell>
        <mxCell id="SNnAPRE6H2LCFaZrrpsA-416" value="" style="endArrow=classic;html=1;curved=1;" edge="1" parent="1" target="SNnAPRE6H2LCFaZrrpsA-415">
          <mxGeometry width="50" height="50" relative="1" as="geometry">
            <mxPoint x="360" y="250" as="sourcePoint" />
            <mxPoint x="410" y="200" as="targetPoint" />
            <Array as="points">
              <mxPoint x="160" y="250" />
              <mxPoint x="160" y="140" />
            </Array>
          </mxGeometry>
        </mxCell>
        <mxCell id="SNnAPRE6H2LCFaZrrpsA-417" value="" style="endArrow=classic;html=1;curved=1;" edge="1" parent="1" target="SNnAPRE6H2LCFaZrrpsA-415">
          <mxGeometry width="50" height="50" relative="1" as="geometry">
            <mxPoint x="350" y="260" as="sourcePoint" />
            <mxPoint x="345" y="140" as="targetPoint" />
            <Array as="points">
              <mxPoint x="160" y="260" />
              <mxPoint x="160" y="140" />
            </Array>
          </mxGeometry>
        </mxCell>
        <mxCell id="SNnAPRE6H2LCFaZrrpsA-418" value="" style="endArrow=classic;html=1;curved=1;" edge="1" parent="1" target="SNnAPRE6H2LCFaZrrpsA-415">
          <mxGeometry width="50" height="50" relative="1" as="geometry">
            <mxPoint x="340" y="270" as="sourcePoint" />
            <mxPoint x="345" y="140" as="targetPoint" />
            <Array as="points">
              <mxPoint x="160" y="270" />
              <mxPoint x="160" y="140" />
            </Array>
          </mxGeometry>
        </mxCell>
        <mxCell id="SNnAPRE6H2LCFaZrrpsA-420" value="Residue Connections" style="text;html=1;strokeColor=none;fillColor=none;align=center;verticalAlign=middle;whiteSpace=wrap;rounded=0;horizontal=0;fontStyle=1" vertex="1" parent="1">
          <mxGeometry x="180" y="160" width="40" height="80" as="geometry" />
        </mxCell>
      </root>
    </mxGraphModel>
  </diagram>
</mxfile>
